<svg width="216" height="69" viewBox="0 0 216 69" fill="none" xmlns="http://www.w3.org/2000/svg">
<path d="M70.7069 23V26.8743H76.6376V29.8713H70.7069V36.6696C70.7069 37.2446 70.7705 37.7271 70.8978 38.117C71.0348 38.4971 71.2256 38.8041 71.4703 39.038C71.7149 39.2622 72.0085 39.423 72.3511 39.5205C72.7034 39.6179 73.0948 39.6667 73.5255 39.6667C73.8386 39.6667 74.1567 39.652 74.4796 39.6228C74.8124 39.5936 75.1256 39.5595 75.4192 39.5205C75.7225 39.4717 76.0015 39.423 76.2559 39.3743C76.5201 39.3255 76.7452 39.2768 76.9312 39.2281L77.3275 42.0205C77.0437 42.1862 76.711 42.3324 76.3293 42.4591C75.9476 42.576 75.5415 42.6735 75.1109 42.7515C74.6803 42.8294 74.2301 42.8879 73.7603 42.9269C73.3004 42.9756 72.8453 43 72.3951 43C71.5241 43 70.7314 42.8879 70.017 42.6637C69.3123 42.4298 68.7056 42.0741 68.1967 41.5965C67.6976 41.1092 67.311 40.4951 67.037 39.7544C66.7629 39.0039 66.6259 38.1072 66.6259 37.0643V29.8713H63V26.8743H66.6259V23H70.7069Z" fill="black"/>
<path d="M88.9833 42.9854C87.76 42.9854 86.6492 42.7856 85.651 42.386C84.6528 41.9864 83.7965 41.4454 83.082 40.7632C82.3676 40.0712 81.8147 39.2622 81.4232 38.3363C81.0415 37.4006 80.8507 36.4016 80.8507 35.3392V34.7544C80.8507 33.5458 81.0415 32.4444 81.4232 31.4503C81.8049 30.4464 82.3383 29.5838 83.0233 28.8626C83.7084 28.1413 84.5207 27.5809 85.4602 27.1813C86.3997 26.7817 87.4224 26.5819 88.5283 26.5819C89.6733 26.5819 90.6911 26.7719 91.5817 27.152C92.482 27.5224 93.2405 28.0487 93.8571 28.731C94.4834 29.4133 94.958 30.2368 95.281 31.2018C95.604 32.1569 95.7654 33.2144 95.7654 34.3743V36.0994H84.9904C85.0687 36.6355 85.2253 37.1277 85.4602 37.576C85.7048 38.0146 86.0131 38.3947 86.385 38.7164C86.7569 39.038 87.1826 39.2865 87.6622 39.462C88.1417 39.6374 88.6653 39.7251 89.2329 39.7251C89.6341 39.7251 90.0305 39.6862 90.422 39.6082C90.8232 39.5302 91.2049 39.4181 91.567 39.2719C91.9291 39.116 92.2667 38.9259 92.5799 38.7018C92.8931 38.4776 93.1671 38.2144 93.402 37.9123L95.4425 40.1053C95.188 40.4659 94.8553 40.8216 94.4442 41.1725C94.043 41.5136 93.5635 41.8207 93.0056 42.0936C92.4576 42.3567 91.8459 42.5712 91.1706 42.7368C90.4954 42.9025 89.7663 42.9854 88.9833 42.9854ZM88.4989 29.8713C88.0389 29.8713 87.6181 29.9542 87.2364 30.1199C86.8548 30.2758 86.5171 30.5049 86.2235 30.807C85.9397 31.1092 85.6999 31.4698 85.5042 31.8889C85.3085 32.308 85.1617 32.7758 85.0638 33.2924H91.7578V32.9708C91.7383 32.5419 91.6551 32.1374 91.5083 31.7573C91.3615 31.3772 91.1511 31.0507 90.877 30.7778C90.603 30.4951 90.2654 30.2758 89.8641 30.1199C89.4727 29.9542 89.0176 29.8713 88.4989 29.8713Z" fill="black"/>
<path d="M109.256 42.693C109.158 42.4981 109.075 42.2739 109.007 42.0205C108.938 41.7671 108.879 41.499 108.831 41.2164C108.605 41.46 108.346 41.6891 108.052 41.9035C107.759 42.1179 107.431 42.308 107.069 42.4737C106.717 42.6296 106.325 42.7515 105.895 42.8392C105.464 42.9366 104.999 42.9854 104.5 42.9854C103.688 42.9854 102.939 42.8684 102.254 42.6345C101.579 42.4006 100.996 42.0741 100.507 41.655C100.018 41.2359 99.636 40.7388 99.362 40.1637C99.088 39.5789 98.951 38.9454 98.951 38.2632C98.951 36.5965 99.5724 35.3099 100.815 34.4035C102.068 33.4873 103.932 33.0292 106.408 33.0292H108.684V32.0936C108.684 31.3333 108.434 30.7339 107.935 30.2953C107.436 29.847 106.717 29.6228 105.777 29.6228C104.945 29.6228 104.338 29.8031 103.957 30.1637C103.575 30.5146 103.384 30.9873 103.384 31.5819H99.3033C99.3033 30.9094 99.4501 30.271 99.7437 29.6667C100.047 29.0624 100.483 28.5312 101.05 28.0731C101.628 27.615 102.327 27.2544 103.149 26.9912C103.981 26.7183 104.931 26.5819 105.997 26.5819C106.956 26.5819 107.847 26.6988 108.669 26.9327C109.501 27.1667 110.22 27.5127 110.827 27.9708C111.434 28.4288 111.908 29.0088 112.251 29.7105C112.593 30.4025 112.765 31.2066 112.765 32.1228V38.9064C112.765 39.7544 112.819 40.4561 112.926 41.0117C113.034 41.5673 113.19 42.0448 113.396 42.4444V42.693H109.256ZM105.366 39.8421C105.777 39.8421 106.159 39.7934 106.511 39.6959C106.863 39.5984 107.181 39.4717 107.465 39.3158C107.749 39.1598 107.994 38.9844 108.199 38.7895C108.405 38.5848 108.566 38.3801 108.684 38.1754V35.4561H106.599C105.963 35.4561 105.42 35.5195 104.97 35.6462C104.52 35.7632 104.153 35.9337 103.869 36.1579C103.585 36.3723 103.374 36.6355 103.237 36.9474C103.1 37.2495 103.032 37.5809 103.032 37.9415C103.032 38.4873 103.223 38.9405 103.604 39.3012C103.996 39.6618 104.583 39.8421 105.366 39.8421Z" fill="black"/>
<path d="M119.928 26.8743L120.046 28.7895C120.349 28.1072 120.765 27.5712 121.294 27.1813C121.832 26.7817 122.483 26.5819 123.246 26.5819C124.528 26.5819 125.365 27.1423 125.756 28.2632C126.07 27.7368 126.466 27.3275 126.945 27.0351C127.435 26.7329 128.022 26.5819 128.707 26.5819C129.187 26.5819 129.632 26.6696 130.043 26.845C130.464 27.0205 130.826 27.3031 131.129 27.693C131.442 28.0731 131.682 28.5702 131.849 29.1842C132.025 29.7885 132.113 30.5292 132.113 31.4064V42.693H128.399V31.3918C128.399 31.0897 128.364 30.8411 128.296 30.6462C128.237 30.4513 128.154 30.3002 128.046 30.193C127.939 30.076 127.812 29.9981 127.665 29.9591C127.528 29.9103 127.386 29.886 127.239 29.886C126.955 29.886 126.715 29.9542 126.52 30.0906C126.324 30.2173 126.172 30.3928 126.065 30.617V42.693H122.468V31.3772C122.468 31.075 122.439 30.8265 122.38 30.6316C122.321 30.4366 122.238 30.2856 122.13 30.1784C122.033 30.0712 121.915 29.9981 121.778 29.9591C121.641 29.9103 121.494 29.886 121.338 29.886C121.025 29.886 120.77 29.9737 120.574 30.1491C120.388 30.3246 120.242 30.5585 120.134 30.8509V42.693H116.42V26.8743H119.928Z" fill="black"/>
<path d="M145.692 38.3509C145.692 38.1072 145.633 37.8928 145.515 37.7076C145.408 37.5224 145.207 37.3519 144.914 37.1959C144.63 37.0302 144.248 36.8791 143.769 36.7427C143.289 36.6062 142.682 36.4698 141.948 36.3333C141.019 36.1481 140.167 35.9191 139.394 35.6462C138.631 35.3635 137.975 35.0273 137.427 34.6374C136.879 34.2378 136.448 33.7797 136.135 33.2632C135.832 32.7466 135.68 32.152 135.68 31.4795C135.68 30.8265 135.837 30.2027 136.15 29.6082C136.463 29.0136 136.913 28.4922 137.5 28.0439C138.087 27.5955 138.802 27.2398 139.644 26.9766C140.485 26.7135 141.434 26.5819 142.491 26.5819C143.597 26.5819 144.591 26.7135 145.471 26.9766C146.352 27.23 147.096 27.5858 147.703 28.0439C148.319 28.4922 148.789 29.0283 149.112 29.652C149.435 30.2758 149.596 30.9532 149.596 31.6842H145.515C145.515 31.0702 145.266 30.5585 144.767 30.1491C144.268 29.73 143.509 29.5205 142.491 29.5205C141.542 29.5205 140.823 29.691 140.333 30.0322C139.854 30.3733 139.614 30.7924 139.614 31.2895C139.614 31.5234 139.663 31.7427 139.761 31.9474C139.859 32.1423 140.03 32.3226 140.275 32.4883C140.529 32.6442 140.872 32.7904 141.302 32.9269C141.733 33.0536 142.281 33.1657 142.946 33.2632C143.906 33.4191 144.796 33.6189 145.618 33.8626C146.44 34.1062 147.15 34.423 147.747 34.8129C148.344 35.193 148.809 35.6608 149.141 36.2164C149.484 36.7622 149.655 37.4152 149.655 38.1754C149.655 38.8772 149.484 39.5253 149.141 40.1199C148.809 40.7047 148.329 41.2115 147.703 41.6404C147.086 42.0692 146.338 42.4055 145.457 42.6491C144.576 42.883 143.592 43 142.506 43C141.312 43 140.255 42.8441 139.335 42.5322C138.425 42.2203 137.662 41.8158 137.045 41.3187C136.429 40.8119 135.959 40.2417 135.636 39.6082C135.323 38.9649 135.166 38.3216 135.166 37.6784H139.056C139.086 38.1072 139.203 38.4776 139.409 38.7895C139.614 39.0916 139.878 39.3402 140.201 39.5351C140.524 39.7203 140.891 39.8567 141.302 39.9444C141.723 40.0322 142.154 40.076 142.594 40.076C143.602 40.076 144.37 39.9152 144.899 39.5936C145.427 39.2719 145.692 38.8577 145.692 38.3509Z" fill="black"/>
<path d="M160.988 23V26.8743H166.919V29.8713H160.988V36.6696C160.988 37.2446 161.052 37.7271 161.179 38.117C161.316 38.4971 161.507 38.8041 161.751 39.038C161.996 39.2622 162.29 39.423 162.632 39.5205C162.984 39.6179 163.376 39.6667 163.807 39.6667C164.12 39.6667 164.438 39.652 164.761 39.6228C165.093 39.5936 165.407 39.5595 165.7 39.5205C166.004 39.4717 166.283 39.423 166.537 39.3743C166.801 39.3255 167.026 39.2768 167.212 39.2281L167.609 42.0205C167.325 42.1862 166.992 42.3324 166.61 42.4591C166.229 42.576 165.823 42.6735 165.392 42.7515C164.961 42.8294 164.511 42.8879 164.041 42.9269C163.581 42.9756 163.126 43 162.676 43C161.805 43 161.012 42.8879 160.298 42.6637C159.593 42.4298 158.987 42.0741 158.478 41.5965C157.979 41.1092 157.592 40.4951 157.318 39.7544C157.044 39.0039 156.907 38.1072 156.907 37.0643V29.8713H153.281V26.8743H156.907V23H160.988Z" fill="black"/>
<path d="M179.264 42.9854C178.041 42.9854 176.93 42.7856 175.932 42.386C174.934 41.9864 174.078 41.4454 173.363 40.7632C172.649 40.0712 172.096 39.2622 171.704 38.3363C171.323 37.4006 171.132 36.4016 171.132 35.3392V34.7544C171.132 33.5458 171.323 32.4444 171.704 31.4503C172.086 30.4464 172.619 29.5838 173.304 28.8626C173.989 28.1413 174.802 27.5809 175.741 27.1813C176.681 26.7817 177.703 26.5819 178.809 26.5819C179.954 26.5819 180.972 26.7719 181.863 27.152C182.763 27.5224 183.522 28.0487 184.138 28.731C184.764 29.4133 185.239 30.2368 185.562 31.2018C185.885 32.1569 186.047 33.2144 186.047 34.3743V36.0994H175.272C175.35 36.6355 175.506 37.1277 175.741 37.576C175.986 38.0146 176.294 38.3947 176.666 38.7164C177.038 39.038 177.464 39.2865 177.943 39.462C178.423 39.6374 178.946 39.7251 179.514 39.7251C179.915 39.7251 180.312 39.6862 180.703 39.6082C181.104 39.5302 181.486 39.4181 181.848 39.2719C182.21 39.116 182.548 38.9259 182.861 38.7018C183.174 38.4776 183.448 38.2144 183.683 37.9123L185.724 40.1053C185.469 40.4659 185.136 40.8216 184.725 41.1725C184.324 41.5136 183.845 41.8207 183.287 42.0936C182.739 42.3567 182.127 42.5712 181.452 42.7368C180.776 42.9025 180.047 42.9854 179.264 42.9854ZM178.78 29.8713C178.32 29.8713 177.899 29.9542 177.518 30.1199C177.136 30.2758 176.798 30.5049 176.505 30.807C176.221 31.1092 175.981 31.4698 175.785 31.8889C175.59 32.308 175.443 32.7758 175.345 33.2924H182.039V32.9708C182.019 32.5419 181.936 32.1374 181.789 31.7573C181.643 31.3772 181.432 31.0507 181.158 30.7778C180.884 30.4951 180.546 30.2758 180.145 30.1199C179.754 29.9542 179.299 29.8713 178.78 29.8713Z" fill="black"/>
<path d="M201.02 26.5819C201.637 26.5819 202.204 26.6257 202.723 26.7135C203.251 26.7914 203.677 26.8791 204 26.9766L203.398 31.0263C202.86 30.8996 202.307 30.807 201.739 30.7485C201.181 30.6803 200.648 30.6462 200.139 30.6462C198.994 30.6462 198.074 30.8655 197.379 31.3041C196.694 31.7427 196.181 32.3713 195.838 33.1901V42.693H191.757V26.8743H195.559L195.75 29.462C196.396 28.5653 197.169 27.8635 198.069 27.3567C198.97 26.8402 199.953 26.5819 201.02 26.5819Z" fill="black"/>
<path fill-rule="evenodd" clip-rule="evenodd" d="M13 17H47V51H13V17ZM17 21V47H43V21H37V31.3691L29.4597 27.2562L21.5 31.2361V21H17ZM25.5 21V24.7639L29.5403 22.7438L33 24.6309V21H25.5Z" fill="black"/>
<path fill-rule="evenodd" clip-rule="evenodd" d="M58.2648 22.0493L32.2119 43.317L24.4478 33.7612L27.5522 31.2388L32.7882 37.683L55.7353 18.9507L58.2648 22.0493Z" fill="black"/>
</svg>
