<svg width="1317" height="400" viewBox="0 0 1317 400" fill="none" xmlns="http://www.w3.org/2000/svg">
<path d="M179.119 51.0622L164.979 184.081C164.488 188.688 161.524 192.627 157.237 194.376C155.708 194.994 154.101 195.3 152.509 195.3C149.637 195.3 146.807 194.312 144.511 192.414L100.752 156.198L100.475 155.97L49.2509 182.34C45.1488 184.451 40.2362 184.145 36.4256 181.536C32.6221 178.927 30.5532 174.455 31.0438 169.863L45.1843 36.8221C45.81 30.9711 51.0638 26.7268 56.9148 27.3453L113.343 33.3456L169.644 39.3317C175.501 39.9502 179.745 45.204 179.119 51.0622Z" fill="#FF4D4D"/>
<path d="M179.119 51.0622L164.979 184.081C164.488 188.688 161.524 192.627 157.237 194.376C155.708 194.994 154.101 195.3 152.509 195.3C149.637 195.3 146.807 194.312 144.511 192.414L100.752 156.198L113.343 33.3456L169.643 39.3317C175.501 39.9502 179.745 45.204 179.119 51.0622Z" fill="#EA3B3B"/>
<path d="M330.735 368.236C326.924 370.845 322.011 371.151 317.909 369.04L267.133 342.905L266.678 342.67L222.642 379.121C220.353 381.012 217.516 382 214.651 382C213.052 382 211.445 381.694 209.916 381.069C205.629 379.327 202.665 375.381 202.174 370.781L188.041 237.762C187.415 231.904 191.66 226.65 197.518 226.032L240.21 227.852C245.372 228.072 250.526 227.909 255.652 227.368C261.097 226.8 266.501 225.797 271.804 224.368L310.238 214.045C316.103 213.427 321.35 217.671 321.969 223.522L336.116 356.563C336.6 361.155 334.538 365.627 330.735 368.236Z" fill="#FFCA5F"/>
<path d="M330.735 368.236C326.924 370.845 322.011 371.151 317.909 369.04L267.133 342.905L255.652 227.368C261.097 226.8 266.501 225.797 271.804 224.368L310.238 214.045C316.103 213.427 321.35 217.671 321.969 223.522L336.116 356.563C336.6 361.155 334.538 365.627 330.735 368.236Z" fill="#FFA52E"/>
<path d="M179.11 237.762L164.97 370.781C164.479 375.388 161.514 379.327 157.227 381.076C155.699 381.694 154.092 382 152.5 382C149.627 382 146.798 381.012 144.509 379.121L101.048 343.154L100.465 342.67L49.2403 369.04C45.1381 371.151 40.2256 370.845 36.4149 368.236C32.6114 365.627 30.5426 361.155 31.0331 356.563L45.1737 223.522C45.7993 217.671 51.0531 213.427 56.9042 214.045L94.7552 225.47C99.8953 227.02 105.156 228.101 110.474 228.691C111.235 228.776 111.995 228.854 112.756 228.918C117.32 229.309 121.913 229.352 126.499 229.032L169.632 226.032C175.491 226.65 179.736 231.904 179.11 237.762Z" fill="#FF4D4D"/>
<path d="M179.11 237.762L164.969 370.781C164.479 375.388 161.514 379.327 157.227 381.076C155.699 381.694 154.092 382 152.5 382C149.627 382 146.798 381.012 144.509 379.121L101.048 343.154L112.758 228.918C117.322 229.309 121.914 229.352 126.5 229.032L169.633 226.032C175.491 226.65 179.736 231.904 179.11 237.762Z" fill="#EA3B3B"/>
<path d="M330.744 181.536C326.933 184.145 322.021 184.451 317.918 182.34L267.32 156.297L266.688 155.97L222.651 192.421C220.362 194.312 217.526 195.3 214.66 195.3C213.061 195.3 211.454 194.994 209.926 194.369C205.639 192.627 202.674 188.681 202.184 184.081L188.05 51.0622C187.424 45.204 191.669 39.9502 197.527 39.3317L254.346 33.2887L310.249 27.3453C316.114 26.7268 321.361 30.9711 321.979 36.8221L336.127 169.863C336.609 174.455 334.547 178.927 330.744 181.536Z" fill="#FFCA5F"/>
<path d="M330.744 181.536C326.933 184.145 322.021 184.451 317.918 182.34L267.32 156.297L254.345 33.2887L310.247 27.3453C316.113 26.7268 321.359 30.9711 321.978 36.8221L336.126 169.863C336.609 174.455 334.547 178.927 330.744 181.536Z" fill="#FFA52E"/>
<path d="M347.118 39.1397L316.703 44.9978C272.482 53.5149 227.955 57.8232 183.428 57.9085C182.952 57.9156 182.482 57.9156 182.006 57.9156C137.003 57.9156 92 53.6073 47.3091 44.9978L16.8873 39.1397C11.1074 38.0236 7.31812 32.4356 8.43429 26.6557C9.54335 20.8686 15.1455 17.0793 20.9184 18.1955L51.3401 24.0607C95.163 32.4996 139.292 36.6728 183.428 36.5803C226.604 36.495 269.78 32.3218 312.665 24.0607L343.087 18.1955C348.874 17.0864 354.462 20.8686 355.578 26.6557C356.687 32.4356 352.905 38.0236 347.118 39.1397Z" fill="#333333"/>
<path d="M347.108 226.551L316.694 232.409C272.615 240.897 228.23 245.206 183.838 245.319C183.226 245.327 182.608 245.327 181.996 245.327C136.993 245.327 91.9903 241.018 47.2994 232.409L16.8777 226.551C11.0977 225.435 7.30845 219.847 8.42462 214.067C9.53368 208.28 15.1359 204.49 20.9087 205.606L51.3304 211.472C95.2884 219.939 139.566 224.112 183.838 223.991C226.879 223.878 269.912 219.704 312.655 211.472L343.077 205.606C348.864 204.497 354.452 208.28 355.568 214.067C356.677 219.847 352.895 225.435 347.108 226.551Z" fill="#333333"/>
<path d="M347.117 39.1397L316.703 44.9979C272.482 53.5149 227.955 57.8232 183.428 57.9085V36.5804C226.604 36.495 269.779 32.3218 312.665 24.0607L343.086 18.1955C348.873 17.0864 354.461 20.8686 355.578 26.6557C356.687 32.4356 352.904 38.0236 347.117 39.1397Z" fill="black"/>
<path d="M347.108 226.551L316.694 232.409C272.615 240.897 228.23 245.206 183.838 245.319V223.991C226.879 223.877 269.912 219.704 312.655 211.471L343.077 205.606C348.864 204.497 354.452 208.279 355.568 214.066C356.677 219.847 352.895 225.435 347.108 226.551Z" fill="black"/>
<path d="M559.4 163L506.8 23H483.6L426.4 163H458.2L467.6 137H517.4L526.4 163H559.4ZM493 66.6H493.2L509.4 113.6H476L493 66.6ZM705.091 106.6V82.4H656.091V47.2H705.091V23H627.491V163H656.091V106.6H705.091ZM817.877 163V138.8H756.677V103H817.877V78.8H756.677V47.2H817.877V23H728.077V163H817.877ZM872.692 163V23H844.092V163H872.692ZM903.858 23V163H932.458V107.2H937.458L975.858 163H1011.86C1002.26 150 981.458 121.4 969.058 104C984.658 98.8 999.458 86.8 999.458 65C999.458 34.6 970.858 23 948.258 23H903.858ZM932.458 47.2H947.458C960.258 47.2 968.858 54.6 968.858 65.6C968.858 77.8 958.058 83 943.658 83H932.458V47.2ZM1154.32 163L1101.72 23H1078.52L1021.32 163H1053.12L1062.52 137H1112.32L1121.32 163H1154.32ZM1087.92 66.6H1088.12L1104.32 113.6H1070.92L1087.92 66.6ZM529.4 363V338.8H468.2V303H529.4V278.8H468.2V247.2H529.4V223H439.6V363H529.4ZM687.216 260.8V363H715.816V223H674.416L635.416 320.6L597.816 223H555.616V363H584.216V260.4L625.016 363H645.416L687.216 260.8ZM821.627 293C821.627 266.4 840.227 245.6 865.627 245.6C876.427 245.6 886.427 250 894.827 256.4L908.627 234.2C894.827 225.6 881.627 220.6 865.627 220.6C824.427 220.6 791.027 252 791.027 293C791.027 335.8 822.427 365.4 864.427 365.4C881.627 365.4 897.827 360 911.427 349.6L895.427 328.8C886.827 336.2 876.227 340.4 865.627 340.4C838.227 340.4 821.627 321 821.627 293ZM1054.52 363L1001.92 223H978.717L921.517 363H953.317L962.717 337H1012.52L1021.52 363H1054.52ZM988.117 266.6H988.317L1004.52 313.6H971.117L988.117 266.6ZM1150.61 257.6L1167.01 237.2C1152.81 226.4 1138.61 220.6 1120.61 220.6C1097.41 220.6 1074.81 233.2 1074.81 259.8C1074.81 286.6 1095.21 294.6 1113.41 301.4C1127.61 306.6 1140.41 311.2 1140.41 323.2C1140.41 335.6 1129.41 341 1118.21 341C1103.61 341 1094.81 334.4 1083.41 323.4L1064.41 342C1079.61 357.2 1096.41 365.4 1118.01 365.4C1142.41 365.4 1171.01 352.4 1171.01 322C1171.01 292.6 1147.21 283.4 1127.41 276.6C1116.61 272.8 1103.41 269.8 1103.41 259C1103.41 249.8 1112.01 245 1121.61 245C1132.41 245 1142.81 251 1150.61 257.6ZM1314.28 363L1261.68 223H1238.48L1181.28 363H1213.08L1222.48 337H1272.28L1281.28 363H1314.28ZM1247.88 266.6H1248.08L1264.28 313.6H1230.88L1247.88 266.6Z" fill="black"/>
</svg>
