<svg id="Layer_1" enable-background="new 0 0 512 512" height="512" viewBox="0 0 512 512" width="512" xmlns="http://www.w3.org/2000/svg"><g><path d="m312.257 492.103v-110.067c0-27.418 8.425-54.172 24.159-76.626 3.861-5.51 7.731-11.731 11.228-18.558 7.9-15.429 11.85-32.58 11.85-49.914v-14.256h-.078c-6.822 0-13.434-5.581-13.434-12.403v-6.732c0-6.822 3.521-12.403 10.343-12.403h2.503v-70.671c0-6.414-2.416-12.593-6.766-17.306l-11.329-12.273c-9.468-10.257-14.725-23.704-14.725-37.663v-23.565h-205.676v23.564c0 13.959-5.257 27.406-14.725 37.663l-11.329 12.273c-4.351 4.713-6.767 10.892-6.767 17.307v354.877c0 20.241 16.409 36.65 36.65 36.65h201.108c1.366 0 2.713-.081 4.04-.227-9.637-1.383-17.052-9.65-17.052-19.67z" fill="#eeebee"/><path d="m136.269 475.351v-354.879c0-6.414 2.416-12.593 6.766-17.307l11.329-12.273c9.468-10.257 14.725-23.704 14.725-37.663v-23.563h-48.757v23.564c0 13.959-5.257 27.405-14.725 37.663l-11.328 12.273c-4.351 4.713-6.767 10.892-6.767 17.307v354.879c0 20.241 16.409 36.649 36.65 36.649h48.757c-20.242-.001-36.65-16.41-36.65-36.65z" fill="#d6d4d6"/><g><path d="m133.987 250.439c-.932 0-1.878-.17-2.8-.528-21.884-8.515-40.573-23.238-54.046-42.58-13.791-19.8-21.08-43.064-21.08-67.277v-53.069c0-19.649 15.986-35.634 35.635-35.634h28.32c4.268 0 7.726 3.459 7.726 7.726s-3.459 7.726-7.726 7.726h-28.32c-11.129 0-20.182 9.053-20.182 20.182v53.069c0 42.56 25.623 80.028 65.278 95.456 3.977 1.547 5.946 6.025 4.398 10.002-1.189 3.056-4.11 4.927-7.203 4.927z" fill="#5290b2"/></g><path d="m333.625 0h-220.91c-8.761 0-15.863 7.102-15.863 15.863s7.102 15.863 15.863 15.863h220.91c8.761 0 15.863-7.102 15.863-15.863s-7.102-15.863-15.863-15.863z" fill="#d6d4d6"/><path d="m153.251 15.863c0-8.761 7.102-15.863 15.863-15.863h-56.399c-8.761 0-15.863 7.102-15.863 15.863s7.102 15.863 15.863 15.863h56.399c-8.761.001-15.863-7.102-15.863-15.863z" fill="#c4bfc4"/><g><path d="m312.353 250.439c.932 0 1.878-.17 2.8-.528 21.884-8.515 40.573-23.238 54.046-42.58 13.791-19.8 21.08-43.064 21.08-67.277v-53.069c0-19.649-15.986-35.634-35.635-35.634h-28.32c-4.268 0-7.726 3.459-7.726 7.726s3.459 7.726 7.726 7.726h28.32c11.129 0 20.182 9.053 20.182 20.182v53.069c0 42.56-25.623 80.028-65.278 95.456-3.977 1.547-5.946 6.025-4.398 10.002 1.189 3.056 4.11 4.927 7.203 4.927z" fill="#5290b2"/></g><path d="m305.34 222.271c-6.408-2.317-9.996 3.003-11.476 4.782-3.339 4.012-9.235 4.658-13.357 1.511-8.68-6.626-19.018-10.724-29.938-10.724h-14.954-24.889-14.954c-10.92 0-21.258 4.098-29.938 10.724-4.122 3.147-10.019 2.501-13.357-1.511-1.48-1.779-5.068-7.099-11.476-4.782-3.458 1.251-5.762 4.534-5.762 8.211v28.426c0 3.677 2.304 6.961 5.762 8.211 6.419 2.321 9.992-2.998 11.476-4.781 3.339-4.012 9.235-4.658 13.357-1.511 8.68 6.626 19.018 10.724 29.938 10.724h14.954 24.889 14.954c10.92 0 21.258-4.098 29.938-10.724 4.122-3.146 10.019-2.501 13.357 1.511 1.484 1.783 5.057 7.103 11.476 4.781 3.458-1.251 5.762-4.534 5.762-8.211 0-16.479 0-11.901 0-28.426 0-3.677-2.304-6.96-5.762-8.211z" fill="#d09080"/><path d="m305.34 247.166c-6.419 2.321-9.992-2.998-11.476-4.781-3.339-4.012-9.235-4.657-13.357-1.511-8.68 6.626-19.018 10.724-29.938 10.724h-14.954-24.889-14.954c-10.92 0-21.258-4.098-29.938-10.724-4.122-3.146-10.019-2.501-13.357 1.511-1.484 1.783-5.057 7.103-11.476 4.782-3.458-1.251-5.762-4.534-5.762-8.211v19.953c0 3.677 2.304 6.961 5.762 8.211 6.419 2.321 9.992-2.998 11.476-4.781 3.339-4.012 9.235-4.658 13.357-1.511 8.68 6.626 19.018 10.724 29.938 10.724h14.954 24.889 14.954c10.92 0 21.258-4.098 29.938-10.724 4.122-3.146 10.019-2.501 13.357 1.511 1.484 1.783 5.057 7.103 11.476 4.781 3.458-1.251 5.762-4.534 5.762-8.211 0-12.742 0-12.901 0-19.953 0 3.676-2.304 6.96-5.762 8.21z" fill="#be694f"/><path d="m381.814 334.827c33.855 20.918 61.897 2.887 65.6.303-3.924-10.465-9.147-20.463-15.635-29.721-3.86-5.51-7.73-11.729-11.225-18.555-7.901-15.429-11.851-32.581-11.851-49.916v-15.286h-52.3v15.286c0 17.334-3.949 34.485-11.85 49.914-3.496 6.827-7.366 13.048-11.227 18.558-6.063 8.652-11.028 17.948-14.856 27.669 8.061-4.812 33.434-16.732 63.344 1.748z" fill="#bbdafc"/><g><path d="m367.665 306.439c2.511-5.51 5.028-11.729 7.301-18.555 5.139-15.429 7.708-32.581 7.708-49.916v-16.316h-26.271v15.286c0 17.334-3.949 34.485-11.85 49.914-3.496 6.827-7.366 13.048-11.227 18.558-6.063 8.652-11.028 17.948-14.856 27.669 6.031-3.599 21.75-11.173 41.807-7.026 2.086-6.818 4.549-13.384 7.388-19.614z" fill="#9cc5fa"/></g><path d="m408.781 189.082h-52.456c-6.822 0-12.403 5.581-12.403 12.403v10.853c0 6.822 5.581 12.403 12.403 12.403h52.456c6.822 0 12.403-5.581 12.403-12.403v-10.853c0-6.821-5.581-12.403-12.403-12.403z" fill="#e1f1ff"/><path d="m372.767 212.339v-10.853c0-6.822 5.581-12.403 12.403-12.403h-28.845c-6.822 0-12.403 5.581-12.403 12.403v10.853c0 6.822 5.581 12.403 12.403 12.403h28.845c-6.822 0-12.403-5.581-12.403-12.403z" fill="#bbdafc"/><path d="m382.553 331.737c-34.759-22.31-63.155-.313-63.547-.007-6.459 15.891-9.839 32.964-9.839 50.306v110.067c0 10.989 8.908 19.897 19.897 19.897h106.979c10.989 0 19.897-8.908 19.897-19.897v-110.067c0-17.338-3.379-34.407-9.835-50.295-.218.17-28.684 22.375-63.552-.004z" fill="#eeebee"/><g><g><path d="m351.951 493.133v-110.067c0-17.339 2.198-34.407 6.397-50.295.001.001.007.008.011.013.889-3.366 1.868-6.679 2.933-9.932-24.383-4.986-41.977 8.637-42.286 8.878-6.459 15.891-9.839 32.964-9.839 50.306v110.067c0 10.989 8.908 19.897 19.897 19.897h31.74c-5.142-2.633-8.853-10.077-8.853-18.867z" fill="#d6d4d6"/></g></g></g></svg>