<svg xmlns="http://www.w3.org/2000/svg" id="Capa_1" enable-background="new 0 0 512 512" height="512" viewBox="0 0 512 512" width="512"><path d="m137.529 68.069h236.942v107.781h-236.942z" fill="#8cf2ff"/><path d="m388.385 512h-264.77c-26.849 0-48.615-21.766-48.615-48.615v-258.417c0-26.849 21.766-48.615 48.615-48.615h264.77c26.849 0 48.615 21.766 48.615 48.615v258.417c0 26.849-21.766 48.615-48.615 48.615z" fill="#bdf9ff"/><path d="m388.427 156.353h-30.852c26.826 0 48.573 21.784 48.573 48.657v258.333c0 26.872-21.747 48.657-48.573 48.657h30.852c26.826 0 48.573-21.784 48.573-48.657v-258.333c0-26.873-21.747-48.657-48.573-48.657z" fill="#8cf2ff"/><path d="m75 238.552v224.791c0 26.873 21.747 48.657 48.573 48.657h264.854c26.826 0 48.573-21.784 48.573-48.657v-224.791z" fill="#d35d3f"/><path d="m406.148 238.552v224.791c0 26.872-21.747 48.657-48.573 48.657h30.852c26.826 0 48.573-21.784 48.573-48.657v-224.791z" fill="#c24b31"/><path d="m309.69 427.01h-107.38c-38.622 0-69.932-31.309-69.932-69.932v-.242c0-38.622 31.309-69.932 69.932-69.932h107.38c38.622 0 69.932 31.309 69.932 69.932v.242c0 38.623-31.31 69.932-69.932 69.932z" fill="#ffca28"/><path d="m402.286 125.79c0 1.162-.989 2.106-2.146 1.996-16.167-1.545-16.882-20.504-34.42-20.504-18.283 0-18.283 20.604-36.566 20.604-18.285 0-18.285-20.604-36.571-20.604s-18.286 20.604-36.571 20.604c-18.286 0-18.286-20.604-36.573-20.604-18.286 0-18.286 20.604-36.572 20.604-18.288 0-18.288-20.604-36.577-20.604-17.544 0-18.258 18.96-34.431 20.504-1.156.11-2.146-.834-2.146-1.996v-100.199c.001-14.133 11.532-25.591 25.756-25.591h241.062c14.224 0 25.755 11.458 25.755 25.591z" fill="#ffe8cf"/><path d="m376.531 0h-30.905c14.224 0 25.755 11.458 25.755 25.591v82.464c12.245 3.55 14.534 18.322 28.686 19.723 1.184.117 2.219-.802 2.219-1.992v-100.195c0-14.133-11.531-25.591-25.755-25.591z" fill="#f2cdae"/><path d="m404.346 68.069h-296.692c-8.534 0-15.453-6.918-15.453-15.453 0-8.534 6.918-15.453 15.453-15.453h296.692c8.534 0 15.453 6.918 15.453 15.453 0 8.534-6.919 15.453-15.453 15.453z" fill="#bf6724"/><path d="m404.346 37.163h-30.905c8.534 0 15.453 6.918 15.453 15.453 0 8.534-6.918 15.453-15.453 15.453h30.905c8.534 0 15.453-6.918 15.453-15.453 0-8.534-6.919-15.453-15.453-15.453z" fill="#a35418"/></svg>
