<svg width="20" height="20" viewBox="0 0 20 20" fill="none" xmlns="http://www.w3.org/2000/svg">
<path d="M17.598 4.01C17.327 3.956 17.064 4.131 17.01 4.402L16.206 8.421C16.142 8.742 15.787 9.059 15.461 9.087L5.251 9.962L4.158 3.404C4.027 2.617 3.299 2 2.5 2H1.5C1.224 2 1 2.224 1 2.5C1 2.776 1.224 3 1.5 3H2.5C2.807 3 3.121 3.266 3.171 3.569L4.842 13.596C4.973 14.383 5.701 15 6.5 15H16.5C16.776 15 17 14.776 17 14.5C17 14.224 16.776 14 16.5 14H6.5C6.193 14 5.879 13.734 5.829 13.431L5.416 10.952L15.547 10.084C16.315 10.018 17.036 9.374 17.187 8.618L17.991 4.599C18.045 4.328 17.87 4.065 17.599 4.011L17.598 4.01Z" fill="black"/>
<path d="M8 20C6.897 20 6 19.103 6 18C6 16.897 6.897 16 8 16C9.103 16 10 16.897 10 18C10 19.103 9.103 20 8 20ZM8 17C7.449 17 7 17.449 7 18C7 18.551 7.449 19 8 19C8.551 19 9 18.551 9 18C9 17.449 8.551 17 8 17Z" fill="black"/>
<path d="M15 20C13.897 20 13 19.103 13 18C13 16.897 13.897 16 15 16C16.103 16 17 16.897 17 18C17 19.103 16.103 20 15 20ZM15 17C14.449 17 14 17.449 14 18C14 18.551 14.449 19 15 19C15.551 19 16 18.551 16 18C16 17.449 15.551 17 15 17Z" fill="black"/>
<path d="M13.5 4H11V1.5C11 1.224 10.776 1 10.5 1C10.224 1 10 1.224 10 1.5V4H7.5C7.224 4 7 4.224 7 4.5C7 4.776 7.224 5 7.5 5H10V7.5C10 7.776 10.224 8 10.5 8C10.776 8 11 7.776 11 7.5V5H13.5C13.776 5 14 4.776 14 4.5C14 4.224 13.776 4 13.5 4Z" fill="black"/>
</svg>
