<svg width="20" height="20" viewBox="0 0 20 20" fill="none" xmlns="http://www.w3.org/2000/svg">
<g clip-path="url(#clip0)">
<path d="M17.0712 2.929C15.1822 1.04 12.6712 0 10.0002 0C6.90621 0 4.02521 1.425 2.14721 3.807V2.5C2.14721 2.224 1.92321 2 1.64721 2C1.37121 2 1.14721 2.224 1.14721 2.5V5.472C1.14721 5.701 1.30221 5.9 1.52421 5.957C1.62121 5.982 1.71921 5.976 1.80821 5.946L4.66121 4.974C4.92221 4.885 5.06221 4.601 4.97321 4.34C4.88421 4.079 4.60021 3.939 4.33921 4.028L2.84921 4.536C4.53721 2.328 7.16921 1.002 10.0012 1.002C14.9642 1.002 19.0012 5.039 19.0012 10.002C19.0012 14.965 14.9642 19.002 10.0012 19.002C6.68521 19.002 3.64721 17.187 2.07321 14.265C1.94221 14.022 1.63921 13.931 1.39621 14.062C1.15321 14.193 1.06221 14.496 1.19321 14.739C2.94221 17.985 6.31821 20.002 10.0022 20.002C12.6732 20.002 15.1842 18.962 17.0732 17.073C18.9622 15.184 20.0022 12.673 20.0022 10.002C20.0022 7.331 18.9622 4.82 17.0732 2.931L17.0712 2.929Z" fill="black"/>
<path d="M9.99995 10.5002C9.91595 10.5002 9.83295 10.4792 9.75695 10.4372L5.25695 7.93724C5.01595 7.80324 4.92895 7.49924 5.06295 7.25724C5.19695 7.01524 5.50095 6.92924 5.74295 7.06324L9.98294 9.41824L15.2319 6.07824C15.4649 5.93024 15.7739 5.99824 15.9219 6.23124C16.0699 6.46424 16.0019 6.77324 15.7689 6.92124L10.2689 10.4212C10.1869 10.4732 10.0939 10.4992 10.0009 10.4992L9.99995 10.5002Z" fill="black"/>
</g>
<defs>
<clipPath id="clip0">
<path d="M0 0H20V20H0V0Z" fill="white"/>
</clipPath>
</defs>
</svg>
