<svg width="20" height="20" viewBox="0 0 20 20" fill="none" xmlns="http://www.w3.org/2000/svg">
<path d="M9.5 20C6.962 20 4.577 19.012 2.782 17.218C0.987 15.424 0 13.038 0 10.501C0 7.963 0.988 5.578 2.782 3.783C4.576 1.988 6.962 1 9.5 1C12.038 1 14.423 1.988 16.218 3.783C18.013 5.578 19 7.963 19 10.501C19 13.039 18.012 15.424 16.218 17.218C14.424 19.012 12.038 20 9.5 20ZM9.5 2C4.813 2 1 5.813 1 10.5C1 15.187 4.813 19 9.5 19C14.187 19 18 15.187 18 10.5C18 5.813 14.187 2 9.5 2Z" fill="black"/>
<path d="M7.49976 14.4992C7.37176 14.4992 7.24376 14.4503 7.14576 14.3533L4.14576 11.3533C3.95076 11.1583 3.95076 10.8413 4.14576 10.6463C4.34076 10.4513 4.65776 10.4513 4.85276 10.6463L7.49876 13.2923L14.1448 6.64625C14.3398 6.45125 14.6568 6.45125 14.8518 6.64625C15.0468 6.84125 15.0468 7.15825 14.8518 7.35325L7.85176 14.3533C7.75376 14.4513 7.62576 14.4992 7.49776 14.4992H7.49976Z" fill="black"/>
</svg>
