<svg width="12" height="12" viewBox="0 0 12 12" fill="none" xmlns="http://www.w3.org/2000/svg">
<path d="M4.25014 10.9995C4.18613 10.9995 4.12213 10.9737 4.07313 10.9226C3.97562 10.82 3.97562 10.6531 4.07313 10.5505L8.39635 5.9998L4.07313 1.4491C3.97562 1.34646 3.97562 1.17961 4.07313 1.07698C4.17063 0.974341 4.32914 0.974341 4.42665 1.07698L8.92687 5.81401C9.02438 5.91664 9.02438 6.08349 8.92687 6.18613L4.42665 10.9232C4.37764 10.9747 4.31364 11 4.24964 11L4.25014 10.9995Z" fill="black"/>
<path fill-rule="evenodd" clip-rule="evenodd" d="M3.54984 11.0108C3.65138 11.2798 4.05206 11.5 4.24964 11.5C4.44721 11.5 4.64337 11.421 4.78914 11.2675L9.28937 6.5305C9.57021 6.23488 9.57021 5.76525 9.28937 5.46963L4.78914 0.7326C4.49451 0.422467 4.00526 0.422467 3.71063 0.7326C3.42979 1.02822 3.42979 1.49785 3.71063 1.79347L7.70669 5.9998L3.71063 10.2061C3.5019 10.4258 3.44831 10.7417 3.54984 11.0108Z" fill="black"/>
</svg>
