<svg width="20" height="20" viewBox="0 0 20 20" fill="none" xmlns="http://www.w3.org/2000/svg">
<path d="M18.5 3H1.5C0.673 3 0 3.673 0 4.5V15.5C0 16.327 0.673 17 1.5 17H18.5C19.327 17 20 16.327 20 15.5V4.5C20 3.673 19.327 3 18.5 3ZM1.5 4H18.5C18.776 4 19 4.224 19 4.5V5H1V4.5C1 4.224 1.224 4 1.5 4ZM19 6V9H1V6H19ZM18.5 16H1.5C1.224 16 1 15.776 1 15.5V10H19V15.5C19 15.776 18.776 16 18.5 16Z" fill="black"/>
<path d="M17 14H18V15H17V14Z" fill="black"/>
<path d="M13 14H16V15H13V14Z" fill="black"/>
<path d="M10 14H12V15H10V14Z" fill="black"/>
</svg>
