<svg width="20" height="20" viewBox="0 0 20 20" fill="none" xmlns="http://www.w3.org/2000/svg">
<path d="M10.7072 10.4993L19.3532 1.85325C19.5482 1.65825 19.5482 1.34125 19.3532 1.14625C19.1582 0.95125 18.8412 0.95125 18.6462 1.14625L10.0002 9.79225L1.35423 1.14625C1.15923 0.95125 0.842227 0.95125 0.647227 1.14625C0.452227 1.34125 0.452227 1.65825 0.647227 1.85325L9.29323 10.4993L0.647227 19.1453C0.452227 19.3403 0.452227 19.6573 0.647227 19.8523C0.745227 19.9503 0.873227 19.9983 1.00123 19.9983C1.12923 19.9983 1.25723 19.9493 1.35523 19.8523L10.0012 11.2063L18.6472 19.8523C18.7452 19.9503 18.8732 19.9983 19.0012 19.9983C19.1292 19.9983 19.2572 19.9493 19.3552 19.8523C19.5502 19.6573 19.5502 19.3403 19.3552 19.1453L10.7092 10.4993H10.7072Z" fill="black"/>
</svg>
