<svg width="20" height="20" viewBox="0 0 20 20" fill="none" xmlns="http://www.w3.org/2000/svg">
<path d="M17.5 2H1.5C0.673 2 0 2.673 0 3.5V13.5C0 14.327 0.673 15 1.5 15H9V17H5.5C5.224 17 5 17.224 5 17.5C5 17.776 5.224 18 5.5 18H13.5C13.776 18 14 17.776 14 17.5C14 17.224 13.776 17 13.5 17H10V15H17.5C18.327 15 19 14.327 19 13.5V3.5C19 2.673 18.327 2 17.5 2ZM18 13.5C18 13.776 17.776 14 17.5 14H1.5C1.224 14 1 13.776 1 13.5V3.5C1 3.224 1.224 3 1.5 3H17.5C17.776 3 18 3.224 18 3.5V13.5Z" fill="black"/>
</svg>
