<svg width="20" height="20" viewBox="0 0 20 20" fill="none" xmlns="http://www.w3.org/2000/svg">
<g clip-path="url(#clip0)">
<path d="M12.4317 6.61891C12.73 6.61891 12.9722 6.37676 12.9722 6.0784V1.75434C12.9722 0.860336 12.2447 0.132812 11.3507 0.132812H1.62152C0.727524 0.132812 0 0.860336 0 1.75434V14.7265C0 15.533 0.580506 16.4129 1.321 16.7297L6.90121 19.1209C7.09363 19.203 7.28929 19.2441 7.47631 19.2441C7.70656 19.2441 7.92601 19.1814 8.11302 19.0582C8.45246 18.8344 8.64813 18.4366 8.64813 17.9685V16.347H11.3507C12.2447 16.347 12.9722 15.6194 12.9722 14.7254V10.4014C12.9722 10.103 12.73 9.86087 12.4317 9.86087C12.1333 9.86087 11.8912 10.103 11.8912 10.4014V14.7254C11.8912 15.0238 11.649 15.266 11.3507 15.266H8.64813V4.9963C8.64813 4.18987 8.06762 3.30992 7.32713 2.99318L3.17386 1.21275H11.3507C11.649 1.21275 11.8912 1.4549 11.8912 1.75326V6.07732C11.8912 6.37568 12.1333 6.61783 12.4317 6.61783V6.61891ZM6.90121 3.98772C7.24929 4.1369 7.56711 4.61903 7.56711 4.99738V17.9696C7.56711 18.082 7.53684 18.1447 7.51847 18.1566C7.50009 18.1685 7.4309 18.1717 7.32713 18.1274L1.74692 15.7362C1.39883 15.587 1.08102 15.106 1.08102 14.7265V1.75434C1.08102 1.66894 1.10047 1.58894 1.13615 1.51651L6.90121 3.98772V3.98772Z" fill="#1A1A1A"/>
<path d="M19.8409 7.85818L16.5978 4.61513C16.387 4.40433 16.0443 4.40433 15.8335 4.61513C15.6227 4.82593 15.6227 5.16861 15.8335 5.37941L18.1534 7.69927H11.3506C11.0522 7.69927 10.8101 7.94142 10.8101 8.23978C10.8101 8.53814 11.0522 8.78028 11.3506 8.78028H18.1534L15.8335 11.1001C15.6227 11.3109 15.6227 11.6536 15.8335 11.8644C15.9395 11.9704 16.0778 12.0223 16.2162 12.0223C16.3546 12.0223 16.493 11.9693 16.5989 11.8644L19.8419 8.62137C20.0527 8.41058 20.0527 8.06789 19.8419 7.8571L19.8409 7.85818Z" fill="#1A1A1A"/>
</g>
<defs>
<clipPath id="clip0">
<rect width="20" height="20" fill="white"/>
</clipPath>
</defs>
</svg>
