<svg width="20" height="20" viewBox="0 0 20 20" fill="none" xmlns="http://www.w3.org/2000/svg">
<g clip-path="url(#clip0)">
<path d="M19.8718 10.167C19.8248 10.114 18.6898 8.86195 16.9158 7.59495C15.8688 6.84695 14.8158 6.25095 13.7858 5.82195C12.4808 5.27795 11.2068 5.00195 9.99976 5.00195C8.79276 5.00195 7.51876 5.27795 6.21376 5.82195C5.18376 6.25095 4.13076 6.84795 3.08376 7.59495C1.30976 8.86195 0.174762 10.115 0.127762 10.167C-0.0432383 10.357 -0.0432383 10.646 0.127762 10.836C0.174762 10.889 1.30976 12.141 3.08376 13.408C4.13076 14.156 5.18376 14.752 6.21376 15.181C7.51876 15.725 8.79276 16.001 9.99976 16.001C11.2068 16.001 12.4808 15.725 13.7858 15.181C14.8158 14.752 15.8688 14.155 16.9158 13.408C18.6898 12.141 19.8248 10.888 19.8718 10.836C20.0428 10.646 20.0428 10.357 19.8718 10.167ZM12.5738 6.43895C13.4808 7.20195 13.9998 8.31195 13.9998 9.50095C13.9998 11.707 12.2058 13.501 9.99976 13.501C7.79376 13.501 5.99976 11.707 5.99976 9.50095C5.99976 8.31295 6.51876 7.20195 7.42576 6.43895C8.24776 6.17095 9.11676 6.00095 9.99976 6.00095C10.8828 6.00095 11.7518 6.17095 12.5738 6.43895ZM16.3168 12.607C14.7838 13.699 12.4438 15.001 9.99976 15.001C7.55576 15.001 5.21576 13.699 3.68276 12.607C2.52576 11.783 1.64076 10.949 1.19376 10.501C1.64076 10.053 2.52576 9.21995 3.68276 8.39495C4.21276 8.01695 4.83876 7.61495 5.53276 7.24995C5.18576 7.93795 4.99976 8.70495 4.99976 9.50095C4.99976 12.258 7.24276 14.501 9.99976 14.501C12.7568 14.501 14.9998 12.258 14.9998 9.50095C14.9998 8.70495 14.8138 7.93795 14.4668 7.24995C15.1608 7.61495 15.7868 8.01795 16.3168 8.39495C17.4738 9.21895 18.3588 10.053 18.8058 10.501C18.3588 10.949 17.4738 11.782 16.3168 12.607Z" fill="black"/>
</g>
<defs>
<clipPath id="clip0">
<path d="M0 0H20V20H0V0Z" fill="white"/>
</clipPath>
</defs>
</svg>
