<svg width="20" height="20" viewBox="0 0 20 20" fill="none" xmlns="http://www.w3.org/2000/svg">
<g clip-path="url(#clip0)">
<path d="M19.883 0.178205C19.788 0.0652053 19.648 0.000205322 19.501 0.000205322H18.991C13.951 -0.00179468 9.96995 -0.00279462 7.03895 0.698205C5.46395 1.07521 4.24595 1.64421 3.31595 2.43721C2.31195 3.29321 1.62795 4.41421 1.22295 5.86621C0.953953 6.83021 0.827953 8.57121 1.35895 10.3032C1.55495 10.9432 1.86095 11.5472 2.26895 12.1022C1.05295 14.0072 0.00195312 16.5162 0.00195312 19.5012C0.00195312 19.7772 0.225953 20.0012 0.501953 20.0012C0.777953 20.0012 1.00195 19.7772 1.00195 19.5012C1.00195 14.8962 3.72995 11.4802 5.35595 9.8552C6.52295 8.6882 7.84195 7.70321 9.17195 7.00721C10.41 6.35921 11.593 6.00221 12.503 6.00221C12.779 6.00221 13.003 5.77821 13.003 5.50221C13.003 5.22621 12.779 5.00221 12.503 5.00221C11.419 5.00221 10.107 5.38921 8.70895 6.12221C7.29095 6.86521 5.88695 7.91121 4.64995 9.14921C4.12795 9.67121 3.49995 10.3672 2.87595 11.2192C2.63395 10.8382 2.44595 10.4342 2.31695 10.0122C1.81695 8.38021 2.00095 6.80821 2.18795 6.13721C3.61795 1.01221 9.04995 0.999205 18.905 1.00221C17.73 7.29021 15.539 11.3602 12.389 13.1032C9.46695 14.7202 6.56895 13.8382 5.45795 13.3832C5.22395 13.2872 4.98795 13.1692 4.75895 13.0332C4.52195 12.8922 4.21495 12.9702 4.07395 13.2072C3.93295 13.4442 4.01095 13.7512 4.24795 13.8922C4.51995 14.0542 4.79995 14.1942 5.07995 14.3092C5.70195 14.5632 6.70395 14.8892 7.94495 14.9962C8.21895 15.0202 8.48995 15.0312 8.75895 15.0312C10.228 15.0312 11.608 14.6782 12.874 13.9782C14.483 13.0882 15.875 11.6392 17.013 9.6742C18.347 7.3692 19.351 4.31221 19.996 0.588205C20.021 0.443205 19.981 0.294205 19.886 0.181205L19.883 0.178205Z" fill="black"/>
</g>
<defs>
<clipPath id="clip0">
<path d="M0 0H20V20H0V0Z" fill="white"/>
</clipPath>
</defs>
</svg>
