<svg width="20" height="20" viewBox="0 0 20 20" fill="none" xmlns="http://www.w3.org/2000/svg">
<path d="M5.5 20.0004C5.402 20.0004 5.303 19.9714 5.217 19.9124C5.018 19.7764 4.945 19.5174 5.043 19.2974L8.286 12.0004H3.5C3.298 12.0004 3.115 11.8784 3.038 11.6914C2.961 11.5044 3.003 11.2894 3.146 11.1464L13.146 1.14641C13.316 0.976407 13.584 0.951407 13.783 1.08741C13.982 1.22341 14.055 1.48241 13.957 1.70241L10.714 8.99941H15.5C15.702 8.99941 15.885 9.12141 15.962 9.30841C16.039 9.49541 15.997 9.71041 15.854 9.85341L5.854 19.8534C5.757 19.9504 5.629 19.9994 5.5 19.9994V20.0004ZM4.707 11.0004H9.055C9.224 11.0004 9.382 11.0864 9.474 11.2284C9.566 11.3704 9.58 11.5494 9.512 11.7044L7.05 17.2434L14.292 10.0014H9.944C9.775 10.0014 9.617 9.91541 9.525 9.77341C9.433 9.63141 9.419 9.45241 9.487 9.29741L11.949 3.75841L4.707 11.0004Z" fill="black"/>
</svg>
