<svg width="20" height="20" viewBox="0 0 20 20" fill="none" xmlns="http://www.w3.org/2000/svg">
<g clip-path="url(#clip0)">
<path d="M14.7951 4.77864L13.3311 3.71564L12.7721 1.99464H10.9631L9.49912 0.931641L8.03512 1.99464H6.22612L5.66712 3.71564L4.20312 4.77864L4.76213 6.49964L4.20312 8.22064L5.66712 9.28364L5.99913 10.3046V19.4996C5.99913 19.6836 6.10112 19.8536 6.26312 19.9406C6.42512 20.0276 6.62312 20.0176 6.77612 19.9156L9.49912 18.1006L12.2221 19.9156C12.3061 19.9716 12.4021 19.9996 12.4991 19.9996C12.5801 19.9996 12.6611 19.9796 12.7351 19.9406C12.8981 19.8536 12.9991 19.6846 12.9991 19.4996V10.3046L13.3311 9.28364L14.7951 8.22064L14.2361 6.49964L14.7951 4.77864V4.77864ZM9.77713 17.0836C9.60913 16.9716 9.39013 16.9716 9.22213 17.0836L6.99913 18.5656V11.0046H8.03512L9.49912 12.0676L10.9631 11.0046H11.9991V18.5656L9.77612 17.0836H9.77713ZM13.6201 7.83864L12.4811 8.66564L12.0481 9.99964H12.0001V10.0036H10.6391L9.50012 10.8306L8.36112 10.0036H6.95412L6.51912 8.66464L5.38013 7.83764L5.81512 6.49864L5.38013 5.15964L6.51912 4.33264L6.95412 2.99364H8.36112L9.50012 2.16664L10.6391 2.99364H12.0461L12.4811 4.33264L13.6201 5.15964L13.1851 6.49864L13.6201 7.83764V7.83864Z" fill="black"/>
</g>
<defs>
<clipPath id="clip0">
<path d="M0 0H20V20H0V0Z" fill="white"/>
</clipPath>
</defs>
</svg>
