<svg width="12" height="12" viewBox="0 0 12 12" fill="none" xmlns="http://www.w3.org/2000/svg">
<path d="M11.1159 6.6H0.884308C0.727424 6.6 0.600098 6.4656 0.600098 6.3C0.600098 6.1344 0.727424 6 0.884308 6H11.1159C11.2728 6 11.4001 6.1344 11.4001 6.3C11.4001 6.4656 11.2728 6.6 11.1159 6.6Z" fill="black"/>
<path fill-rule="evenodd" clip-rule="evenodd" d="M11.1159 7.1H0.884308C0.426153 7.1 0.100098 6.71593 0.100098 6.3C0.100098 5.88407 0.426153 5.5 0.884308 5.5H11.1159C11.574 5.5 11.9001 5.88407 11.9001 6.3C11.9001 6.71593 11.574 7.1 11.1159 7.1ZM0.884308 6.6H11.1159C11.2728 6.6 11.4001 6.4656 11.4001 6.3C11.4001 6.1344 11.2728 6 11.1159 6H0.884308C0.727424 6 0.600098 6.1344 0.600098 6.3C0.600098 6.4656 0.727424 6.6 0.884308 6.6Z" fill="black"/>
</svg>
