<svg width="20" height="20" viewBox="0 0 20 20" fill="none" xmlns="http://www.w3.org/2000/svg">
<g clip-path="url(#clip0)">
<path d="M10.339 20.0004C7.577 20.0004 4.981 18.9244 3.028 16.9724C1.075 15.0204 0 12.4234 0 9.66136C0 6.89936 1.075 4.30336 3.028 2.35036C4.044 1.33436 5.233 0.555362 6.562 0.0343621C6.76 -0.0426379 6.985 0.0123621 7.123 0.173362C7.261 0.334362 7.284 0.564362 7.179 0.748362C6.233 2.40036 5.845 4.35736 6.086 6.25736C6.334 8.21736 7.206 9.99436 8.606 11.3954C10.277 13.0664 12.498 13.9864 14.86 13.9864C16.402 13.9864 17.92 13.5844 19.251 12.8224C19.435 12.7174 19.666 12.7394 19.827 12.8774C19.988 13.0154 20.043 13.2404 19.966 13.4384C19.445 14.7674 18.666 15.9564 17.65 16.9724C15.697 18.9254 13.101 20.0004 10.339 20.0004V20.0004ZM5.687 1.56036C4.978 1.96736 4.325 2.46836 3.736 3.05736C1.972 4.82136 1.001 7.16636 1.001 9.66136C1.001 12.1564 1.972 14.5014 3.736 16.2654C5.5 18.0294 7.845 19.0004 10.339 19.0004C12.833 19.0004 15.178 18.0294 16.942 16.2654C17.53 15.6764 18.031 15.0244 18.438 14.3154C17.303 14.7564 16.088 14.9864 14.86 14.9864C12.23 14.9864 9.757 13.9624 7.898 12.1024C6.339 10.5434 5.369 8.56536 5.093 6.38336C4.887 4.75236 5.097 3.08336 5.687 1.56136V1.56036Z" fill="black"/>
</g>
<defs>
<clipPath id="clip0">
<path d="M0 0H20V20H0V0Z" fill="white"/>
</clipPath>
</defs>
</svg>
