<svg width="20" height="20" viewBox="0 0 20 20" fill="none" xmlns="http://www.w3.org/2000/svg">
<g clip-path="url(#clip0)">
<path d="M18.998 4.45566C18.998 4.45066 18.997 4.44666 18.996 4.44166C18.995 4.43066 18.993 4.42066 18.991 4.40966C18.99 4.40466 18.989 4.40066 18.988 4.39566C18.985 4.38166 18.982 4.36866 18.978 4.35566C18.976 4.35066 18.975 4.34566 18.973 4.34166C18.97 4.33266 18.967 4.32366 18.963 4.31566C18.961 4.30966 18.959 4.30466 18.956 4.29966C18.952 4.29066 18.948 4.28166 18.943 4.27366C18.941 4.26966 18.939 4.26566 18.937 4.26166C18.93 4.24966 18.923 4.23766 18.916 4.22666C18.914 4.22266 18.911 4.21966 18.908 4.21566C18.902 4.20666 18.896 4.19866 18.889 4.19066C18.886 4.18766 18.883 4.18366 18.881 4.18066C18.873 4.17066 18.864 4.16166 18.855 4.15166C18.854 4.15066 18.853 4.14966 18.852 4.14866C18.842 4.13866 18.831 4.12866 18.82 4.11966C18.817 4.11666 18.814 4.11466 18.811 4.11266C18.803 4.10566 18.794 4.09966 18.786 4.09366C18.782 4.09066 18.778 4.08766 18.774 4.08566C18.765 4.07966 18.756 4.07366 18.746 4.06866C18.743 4.06666 18.739 4.06466 18.736 4.06266C18.725 4.05666 18.714 4.05166 18.703 4.04666L18.696 4.04366C18.695 4.04366 18.695 4.04266 18.694 4.04266L9.70302 0.0466563C9.57402 -0.0103437 9.42602 -0.0103437 9.29702 0.0466563L0.306023 4.04266C0.305023 4.04266 0.305023 4.04366 0.304023 4.04366L0.297023 4.04666C0.286023 4.05166 0.275023 4.05766 0.264023 4.06266C0.261023 4.06466 0.257023 4.06666 0.254023 4.06866C0.244023 4.07366 0.235023 4.07966 0.226023 4.08566C0.222023 4.08866 0.218023 4.09066 0.214023 4.09366C0.205023 4.09966 0.197023 4.10666 0.188023 4.11266C0.185023 4.11466 0.182023 4.11766 0.179023 4.11966C0.168023 4.12866 0.157023 4.13866 0.147023 4.14866C0.146023 4.14966 0.145023 4.15066 0.144023 4.15166C0.135023 4.16066 0.126023 4.17066 0.118023 4.18066C0.115023 4.18366 0.112023 4.18766 0.110023 4.19066C0.103023 4.19866 0.0970234 4.20766 0.0910234 4.21566C0.0880234 4.21966 0.0860234 4.22266 0.0830234 4.22666C0.0750234 4.23766 0.0680234 4.24966 0.0620234 4.26166C0.0600234 4.26566 0.0580234 4.26966 0.0560234 4.27366C0.0520234 4.28266 0.0470234 4.29166 0.0430234 4.30066C0.0410234 4.30566 0.0380234 4.31166 0.0360234 4.31666C0.0320234 4.32566 0.0290234 4.33466 0.0260234 4.34366C0.0240234 4.34866 0.0230234 4.35366 0.0210234 4.35766C0.0170234 4.37066 0.0140234 4.38466 0.0110234 4.39766C0.0100234 4.40266 0.00902344 4.40666 0.00802344 4.41166C0.00602344 4.42266 0.00402344 4.43266 0.00302344 4.44366C0.00202344 4.44866 0.00202344 4.45266 0.00102344 4.45766C2.34375e-05 4.47266 -0.000976562 4.48766 -0.000976562 4.50266V15.5027C-0.000976562 15.7007 0.115023 15.8797 0.296023 15.9597L9.29602 19.9597C9.29702 19.9597 9.29802 19.9607 9.29902 19.9607C9.31202 19.9667 9.32502 19.9717 9.33902 19.9757C9.34202 19.9767 9.34402 19.9777 9.34702 19.9787C9.36202 19.9837 9.37802 19.9877 9.39402 19.9917C9.39502 19.9917 9.39602 19.9917 9.39602 19.9927C9.42902 19.9997 9.46402 20.0037 9.49902 20.0037C9.53402 20.0037 9.56902 19.9997 9.60202 19.9927C9.60302 19.9927 9.60402 19.9927 9.60402 19.9917C9.62002 19.9887 9.63602 19.9837 9.65102 19.9787C9.65402 19.9777 9.65602 19.9767 9.65902 19.9757C9.67302 19.9707 9.68602 19.9657 9.69902 19.9607C9.70002 19.9607 9.70102 19.9597 9.70202 19.9597L18.702 15.9597C18.883 15.8797 18.999 15.7007 18.999 15.5027V4.50266C18.999 4.48766 18.998 4.47266 18.997 4.45766L18.998 4.45566ZM9.50002 1.04766L17.269 4.50066L9.50002 7.95366L1.73102 4.50066L9.50002 1.04766ZM1.00002 5.26966L9.00002 8.82566V18.7317L1.00002 15.1757V5.26966ZM10 18.7317V8.82566L18 5.26966V15.1757L10 18.7317Z" fill="black"/>
</g>
<defs>
<clipPath id="clip0">
<path d="M0 0H20V20H0V0Z" fill="white"/>
</clipPath>
</defs>
</svg>
