<svg width="20" height="20" viewBox="0 0 20 20" fill="none" xmlns="http://www.w3.org/2000/svg">
<g clip-path="url(#clip0)">
<path d="M0.999762 19.9993C0.871762 19.9993 0.743762 19.9503 0.645762 19.8533C0.450762 19.6583 0.450762 19.3412 0.645762 19.1462L18.6458 1.14625C18.8408 0.95125 19.1578 0.95125 19.3528 1.14625C19.5478 1.34125 19.5478 1.65825 19.3528 1.85325L1.35276 19.8533C1.25476 19.9513 1.12676 19.9993 0.998762 19.9993H0.999762Z" fill="black"/>
<path d="M5 9C2.794 9 1 7.206 1 5C1 2.794 2.794 1 5 1C7.206 1 9 2.794 9 5C9 7.206 7.206 9 5 9ZM5 2C3.346 2 2 3.346 2 5C2 6.654 3.346 8 5 8C6.654 8 8 6.654 8 5C8 3.346 6.654 2 5 2Z" fill="black"/>
<path d="M15 20C12.794 20 11 18.206 11 16C11 13.794 12.794 12 15 12C17.206 12 19 13.794 19 16C19 18.206 17.206 20 15 20ZM15 13C13.346 13 12 14.346 12 16C12 17.654 13.346 19 15 19C16.654 19 18 17.654 18 16C18 14.346 16.654 13 15 13Z" fill="black"/>
</g>
<defs>
<clipPath id="clip0">
<path d="M0 0H20V20H0V0Z" fill="white"/>
</clipPath>
</defs>
</svg>
