<svg width="20" height="20" viewBox="0 0 20 20" fill="none" xmlns="http://www.w3.org/2000/svg">
<path d="M9.99998 20C9.84698 20 9.70198 19.93 9.60698 19.809C9.54998 19.736 8.18898 17.995 6.80998 15.424C5.99798 13.911 5.34998 12.425 4.88498 11.008C4.29798 9.221 4.00098 7.536 4.00098 6C4.00098 2.692 6.69298 0 10.001 0C13.309 0 16.001 2.692 16.001 6C16.001 7.536 15.703 9.22 15.117 11.008C14.652 12.425 14.004 13.911 13.192 15.424C11.812 17.995 10.452 19.736 10.395 19.809C10.3 19.93 10.155 20 10.002 20H9.99998ZM9.99998 1C7.24298 1 4.99998 3.243 4.99998 6C4.99998 9.254 6.46298 12.664 7.69098 14.951C8.59298 16.632 9.49998 17.965 9.99998 18.661C10.502 17.962 11.415 16.621 12.318 14.935C13.541 12.652 15 9.248 15 6C15 3.243 12.757 1 9.99998 1Z" fill="black"/>
<path d="M10 9C8.346 9 7 7.654 7 6C7 4.346 8.346 3 10 3C11.654 3 13 4.346 13 6C13 7.654 11.654 9 10 9ZM10 4C8.897 4 8 4.897 8 6C8 7.103 8.897 8 10 8C11.103 8 12 7.103 12 6C12 4.897 11.103 4 10 4Z" fill="black"/>
</svg>
