<svg width="20" height="20" viewBox="0 0 20 20" fill="none" xmlns="http://www.w3.org/2000/svg">
<path d="M17.5789 9.57895H10.4211V2.42105C10.4211 2.18863 10.2324 2 10 2C9.76758 2 9.57895 2.18863 9.57895 2.42105V9.57895H2.42105C2.18863 9.57895 2 9.76758 2 10C2 10.2324 2.18863 10.4211 2.42105 10.4211H9.57895V17.5789C9.57895 17.8114 9.76758 18 10 18C10.2324 18 10.4211 17.8114 10.4211 17.5789V10.4211H17.5789C17.8114 10.4211 18 10.2324 18 10C18 9.76758 17.8114 9.57895 17.5789 9.57895Z" fill="black"/>
</svg>
