<svg width="12" height="12" viewBox="0 0 12 12" fill="none" xmlns="http://www.w3.org/2000/svg">
<path d="M10.5476 5.24659H6.75283V1.45185C6.75283 1.03626 6.41579 0.699219 6.0002 0.699219C5.5846 0.699219 5.24756 1.03626 5.24756 1.45185V5.24659H1.45283C1.03723 5.24659 0.700195 5.58362 0.700195 5.99922C0.700195 6.41481 1.03723 6.75185 1.45283 6.75185H5.24756V10.5466C5.24756 10.9622 5.5846 11.2992 6.0002 11.2992C6.41579 11.2992 6.75283 10.9622 6.75283 10.5466V6.75185H10.5476C10.9632 6.75185 11.3002 6.41481 11.3002 5.99922C11.3002 5.58362 10.9632 5.24659 10.5476 5.24659Z" fill="#333333"/>
</svg>
