<svg width="20" height="20" viewBox="0 0 20 20" fill="none" xmlns="http://www.w3.org/2000/svg">
<g clip-path="url(#clip0)">
<path d="M13.324 19.4022C13.25 19.4022 13.176 19.3862 13.108 19.3532C12.985 19.2942 12.892 19.1882 12.849 19.0592C12.442 17.8282 11.297 17.0012 10 17.0012C8.703 17.0012 7.557 17.8282 7.151 19.0592C7.108 19.1882 7.015 19.2942 6.892 19.3532C6.769 19.4122 6.628 19.4182 6.501 19.3712C5.459 18.9822 4.495 18.4242 3.636 17.7152C3.531 17.6282 3.466 17.5032 3.456 17.3682C3.446 17.2332 3.491 17.0992 3.581 16.9972C4.443 16.0292 4.587 14.6252 3.938 13.5012C3.404 12.5762 2.407 12.0012 1.337 12.0012C1.134 12.0012 0.93 12.0222 0.732 12.0632C0.599 12.0912 0.46 12.0632 0.348 11.9862C0.236 11.9092 0.16 11.7902 0.137 11.6562C0.046 11.1102 0 10.5542 0 10.0022C0 9.45023 0.046 8.89423 0.137 8.34823C0.159 8.21423 0.235 8.09523 0.348 8.01823C0.461 7.94123 0.599 7.91323 0.732 7.94123C0.93 7.98223 1.134 8.00323 1.337 8.00323C2.407 8.00323 3.404 7.42823 3.938 6.50323C4.586 5.38023 4.443 3.97523 3.581 3.00723C3.491 2.90623 3.445 2.77223 3.456 2.63623C3.467 2.50023 3.531 2.37523 3.636 2.28923C4.495 1.57923 5.46 1.02223 6.501 0.633235C6.628 0.585235 6.77 0.592235 6.892 0.651235C7.014 0.710235 7.108 0.816234 7.151 0.945234C7.558 2.17623 8.703 3.00323 10 3.00323C11.297 3.00323 12.443 2.17623 12.849 0.945234C12.892 0.816234 12.985 0.710235 13.108 0.651235C13.231 0.592235 13.372 0.586235 13.499 0.633235C14.541 1.02223 15.505 1.58023 16.364 2.28923C16.469 2.37623 16.534 2.50123 16.544 2.63623C16.554 2.77123 16.509 2.90523 16.419 3.00723C15.557 3.97523 15.413 5.37923 16.062 6.50323C16.596 7.42923 17.593 8.00323 18.663 8.00323C18.866 8.00323 19.07 7.98223 19.268 7.94123C19.401 7.91323 19.54 7.94123 19.652 8.01823C19.764 8.09523 19.84 8.21423 19.863 8.34823C19.954 8.89423 20 9.45023 20 10.0022C20 10.5542 19.954 11.1102 19.863 11.6562C19.841 11.7902 19.765 11.9092 19.652 11.9862C19.539 12.0632 19.401 12.0912 19.268 12.0632C19.07 12.0222 18.866 12.0012 18.663 12.0012C17.593 12.0012 16.596 12.5762 16.062 13.5012C15.414 14.6242 15.557 16.0292 16.419 16.9972C16.509 17.0982 16.555 17.2322 16.544 17.3682C16.533 17.5042 16.469 17.6292 16.364 17.7152C15.505 18.4252 14.541 18.9822 13.499 19.3712C13.442 19.3922 13.383 19.4032 13.324 19.4032V19.4022ZM4.654 17.2412C5.198 17.6432 5.782 17.9812 6.401 18.2512C7.063 16.8862 8.45 16.0002 10 16.0002C11.55 16.0002 12.937 16.8862 13.599 18.2512C14.218 17.9812 14.802 17.6432 15.346 17.2412C14.495 15.9852 14.422 14.3422 15.196 13.0002C15.908 11.7662 17.237 11.0002 18.663 11.0002C18.756 11.0002 18.85 11.0032 18.943 11.0102C18.981 10.6742 19 10.3362 19 10.0012C19 9.66623 18.981 9.32723 18.943 8.99223C18.85 8.99923 18.756 9.00223 18.663 9.00223C17.237 9.00223 15.908 8.23623 15.196 7.00223C14.421 5.66023 14.494 4.01623 15.346 2.76123C14.802 2.35923 14.218 2.02123 13.599 1.75123C12.937 3.11623 11.55 4.00223 10 4.00223C8.45 4.00223 7.063 3.11623 6.401 1.75123C5.782 2.02123 5.198 2.35923 4.654 2.76123C5.505 4.01723 5.578 5.66023 4.804 7.00223C4.092 8.23623 2.763 9.00223 1.337 9.00223C1.244 9.00223 1.15 8.99923 1.057 8.99223C1.019 9.32823 1 9.66623 1 10.0012C1 10.3362 1.019 10.6752 1.057 11.0102C1.15 11.0032 1.244 11.0002 1.337 11.0002C2.763 11.0002 4.092 11.7672 4.804 13.0002C5.579 14.3422 5.506 15.9862 4.654 17.2412Z" fill="black"/>
<path d="M10 13C8.346 13 7 11.654 7 10C7 8.346 8.346 7 10 7C11.654 7 13 8.346 13 10C13 11.654 11.654 13 10 13ZM10 8C8.897 8 8 8.897 8 10C8 11.103 8.897 12 10 12C11.103 12 12 11.103 12 10C12 8.897 11.103 8 10 8Z" fill="black"/>
</g>
<defs>
<clipPath id="clip0">
<path d="M0 0H20V20H0V0Z" fill="white"/>
</clipPath>
</defs>
</svg>
