<svg width="20" height="20" viewBox="0 0 20 20" fill="none" xmlns="http://www.w3.org/2000/svg">
<path d="M8 20C6.897 20 6 19.103 6 18C6 16.897 6.897 16 8 16C9.103 16 10 16.897 10 18C10 19.103 9.103 20 8 20ZM8 17C7.449 17 7 17.449 7 18C7 18.551 7.449 19 8 19C8.551 19 9 18.551 9 18C9 17.449 8.551 17 8 17Z" fill="black"/>
<path d="M15 20C13.897 20 13 19.103 13 18C13 16.897 13.897 16 15 16C16.103 16 17 16.897 17 18C17 19.103 16.103 20 15 20ZM15 17C14.449 17 14 17.449 14 18C14 18.551 14.449 19 15 19C15.551 19 16 18.551 16 18C16 17.449 15.551 17 15 17Z" fill="black"/>
<path d="M17.539 4.46725C17.288 4.17025 16.909 4.00025 16.5 4.00025H16.207L13.353 1.14625C13.158 0.95125 12.841 0.95125 12.646 1.14625L11.646 2.14625C11.451 2.34125 11.451 2.65825 11.646 2.85325C11.841 3.04825 12.158 3.04825 12.353 2.85325L12.999 2.20725L14.792 4.00025H12.206L8.85205 0.64625C8.65705 0.45125 8.34005 0.45125 8.14505 0.64625L4.79105 4.00025H4.25505L4.15605 3.40425C4.02505 2.61725 3.29705 2.00025 2.49805 2.00025H1.49805C1.22205 2.00025 0.998047 2.22425 0.998047 2.50025C0.998047 2.77625 1.22205 3.00025 1.49805 3.00025H2.49805C2.80505 3.00025 3.11905 3.26625 3.16905 3.56925L4.84005 13.5962C4.97105 14.3832 5.69905 15.0002 6.49805 15.0002H16.498C16.774 15.0002 16.998 14.7762 16.998 14.5002C16.998 14.2242 16.774 14.0002 16.498 14.0002H6.49805C6.19105 14.0002 5.87705 13.7343 5.82705 13.4312L5.58005 11.9513L15.545 11.0842C16.32 11.0172 17.028 10.3632 17.156 9.59525L17.827 5.56825C17.894 5.16425 17.789 4.76225 17.538 4.46625L17.539 4.46725ZM8.50005 1.70725L10.793 4.00025H6.20705L8.50005 1.70725ZM16.842 5.40425L16.171 9.43125C16.118 9.74725 15.78 10.0603 15.46 10.0883L5.41705 10.9613L4.42305 4.99925H16.499C16.616 4.99925 16.714 5.03925 16.775 5.11225C16.836 5.18525 16.86 5.28825 16.841 5.40325L16.842 5.40425Z" fill="black"/>
</svg>
