<svg width="20" height="20" viewBox="0 0 20 20" fill="none" xmlns="http://www.w3.org/2000/svg">
<g clip-path="url(#clip0)">
<path d="M18.5 2H12.75L11.4 0.2C11.306 0.074 11.157 0 11 0H9C8.843 0 8.694 0.074 8.6 0.2L7.25 2H1.5C1.224 2 1 2.224 1 2.5C1 2.776 1.224 3 1.5 3H18.5C18.776 3 19 2.776 19 2.5C19 2.224 18.776 2 18.5 2ZM9.25 1H10.75L11.5 2H8.5L9.25 1Z" fill="black"/>
<path d="M17.582 4.00677C17.31 3.96177 17.052 4.14577 17.007 4.41777L14.671 18.4318C14.62 18.7348 14.307 19.0008 14 19.0008H6.00002C5.69302 19.0008 5.37902 18.7348 5.32902 18.4318L2.99302 4.41777C2.94802 4.14577 2.69002 3.96177 2.41802 4.00677C2.14602 4.05177 1.96202 4.30977 2.00702 4.58177L4.34302 18.5958C4.47402 19.3828 5.20202 19.9998 6.00102 19.9998H14.001C14.799 19.9998 15.527 19.3828 15.659 18.5958L17.995 4.58177C18.04 4.30977 17.856 4.05177 17.584 4.00677H17.582Z" fill="black"/>
</g>
<defs>
<clipPath id="clip0">
<path d="M0 0H20V20H0V0Z" fill="white"/>
</clipPath>
</defs>
</svg>
