<svg width="20" height="20" viewBox="0 0 20 20" fill="none" xmlns="http://www.w3.org/2000/svg">
<g clip-path="url(#clip0)">
<path d="M18.927 16.159C18.57 15.778 18.136 15.446 17.631 15.162C17.328 14.558 16.733 13.763 15.573 13.129C15.098 12.869 14.561 12.654 13.966 12.483C15.179 11.795 16 10.492 16 9.00095C16 7.38195 15.033 5.98395 13.646 5.35595C13.349 4.69795 12.883 4.13495 12.286 3.71895C12.083 3.57695 11.868 3.45595 11.646 3.35495C11.349 2.69795 10.883 2.13495 10.286 1.71895C9.61302 1.24995 8.82302 1.00195 8.00002 1.00195C5.79402 1.00195 4.00002 2.79595 4.00002 5.00195C4.00002 5.82495 4.24802 6.61495 4.71702 7.28795C5.13302 7.88495 5.69602 8.35095 6.35302 8.64795C6.45402 8.87095 6.57502 9.08495 6.71702 9.28795C6.90502 9.55695 7.12302 9.79895 7.36502 10.012C5.86702 10.059 4.56802 10.275 3.49602 10.656C2.48702 11.015 1.67202 11.521 1.07202 12.16C0.0110235 13.291 -0.000976562 14.453 -0.000976562 14.502C-0.000976562 15.329 0.672023 16.002 1.49902 16.002H2.06702C2.00102 16.293 1.99902 16.483 1.99902 16.502C1.99902 17.329 2.67202 18.002 3.49902 18.002H4.06702C4.00102 18.293 3.99902 18.483 3.99902 18.502C3.99902 19.329 4.67202 20.002 5.49902 20.002H18.499C19.326 20.002 19.999 19.329 19.999 18.502C19.999 18.453 19.987 17.291 18.926 16.16L18.927 16.159ZM15 9.00095C15 10.655 13.654 12.001 12 12.001C10.346 12.001 9.00002 10.655 9.00002 9.00095C9.00002 7.34695 10.346 6.00095 12 6.00095C13.654 6.00095 15 7.34695 15 9.00095ZM5.00002 5.00095C5.00002 3.34695 6.34602 2.00095 8.00002 2.00095C8.86602 2.00095 9.67902 2.38295 10.24 3.00895C10.16 3.00395 10.081 3.00095 10 3.00095C7.79402 3.00095 6.00002 4.79495 6.00002 7.00095C6.00002 7.08095 6.00302 7.16095 6.00802 7.24095C5.38202 6.67995 5.00002 5.86695 5.00002 5.00095ZM7.00002 7.00095C7.00002 5.34695 8.34602 4.00095 10 4.00095C10.865 4.00095 11.678 4.38295 12.239 5.00795C12.16 5.00295 12.08 5.00095 12 5.00095C9.79402 5.00095 8.00002 6.79495 8.00002 9.00095C8.00002 9.08095 8.00302 9.16095 8.00702 9.23995C7.38102 8.67895 7.00002 7.86595 7.00002 7.00095ZM1.50002 15.001C1.22502 15.001 1.00202 14.778 1.00002 14.504C1.00102 14.449 1.03702 13.625 1.85502 12.788C2.65202 11.973 4.36502 11.001 8.00002 11.001C8.18302 11.001 8.36402 11.004 8.54202 11.009C8.76202 11.387 9.04202 11.725 9.36902 12.011C7.87002 12.058 6.57002 12.274 5.49702 12.655C4.48802 13.014 3.67302 13.52 3.07302 14.159C2.80602 14.444 2.60602 14.731 2.45502 15.001H1.50002ZM3.50002 17.001C3.22502 17.001 3.00202 16.778 3.00002 16.504C3.00202 16.448 3.03802 15.624 3.85502 14.788C4.65202 13.973 6.36502 13.001 10 13.001C13.035 13.001 14.753 13.669 15.725 14.418C14.658 14.141 13.41 14.001 12 14.001C10.232 14.001 8.71702 14.221 7.49702 14.655C6.48802 15.014 5.67302 15.52 5.07302 16.159C4.80602 16.444 4.60602 16.731 4.45502 17.001H3.50002ZM18.5 19.001H5.50002C5.22502 19.001 5.00202 18.778 5.00002 18.504C5.00102 18.449 5.03702 17.625 5.85502 16.788C6.65202 15.973 8.36502 15.001 12 15.001C15.635 15.001 17.348 15.973 18.145 16.788C18.963 17.625 18.998 18.449 19 18.504C18.998 18.778 18.775 19.001 18.5 19.001Z" fill="black"/>
</g>
<defs>
<clipPath id="clip0">
<path d="M0 0H20V20H0V0Z" fill="white"/>
</clipPath>
</defs>
</svg>
