<svg width="20" height="20" viewBox="0 0 20 20" fill="none" xmlns="http://www.w3.org/2000/svg">
<path d="M0.425246 10.3404C0.323253 10.3404 0.22126 10.3039 0.140515 10.2308C-0.0337235 10.0735 -0.0473226 9.80496 0.110767 9.63072L7.61492 1.33697C7.8478 1.07944 8.16228 0.9375 8.50056 0.9375C8.83799 0.9375 9.15247 1.07944 9.3862 1.33697L11.9063 4.12224L11.9003 3.11931C11.8995 3.00626 11.9445 2.89747 12.0236 2.81758C12.1026 2.73768 12.2114 2.69263 12.3253 2.69263H14.0252C14.2598 2.69263 14.4502 2.88302 14.4502 3.11761V6.93555L14.607 7.10893C14.7623 7.28047 14.7516 7.54469 14.5832 7.70321V7.70321C14.41 7.86618 14.1367 7.85518 13.9772 7.67883L13.7107 7.38432C13.6402 7.30613 13.6011 7.20414 13.6011 7.09959V3.54343H12.7537L12.763 5.23142C12.7639 5.40735 12.6559 5.56629 12.4919 5.63004C12.3279 5.69379 12.1409 5.64959 12.0227 5.5187L8.7564 1.90899C8.6867 1.83164 8.59576 1.78914 8.50141 1.78914C8.40707 1.78914 8.31612 1.83164 8.24643 1.90899L0.742275 10.2027C0.658131 10.2954 0.542538 10.343 0.426946 10.343L0.425246 10.3404Z" fill="black"/>
<path d="M3.82423 17.1401C3.12133 17.1401 2.54932 16.5681 2.54932 15.8651V9.0656C2.54932 8.83101 2.7397 8.64062 2.97429 8.64062C3.20887 8.64062 3.39926 8.83101 3.39926 9.0656V15.8651C3.39926 16.0997 3.58965 16.2901 3.82423 16.2901H7.22401C7.45871 16.2901 7.64898 16.4804 7.64898 16.7151V16.7151C7.64898 16.9498 7.45871 17.1401 7.22401 17.1401H3.82423Z" fill="black"/>
<path d="M19.8798 11.0162C19.8803 11.0236 19.8808 11.031 19.8808 11.0384V14.1513L19.9994 11.0194L19.8798 11.0162Z" fill="black"/>
<path fill-rule="evenodd" clip-rule="evenodd" d="M14.7838 18.7083V13.3687L19.3149 11.4519V16.7915L14.7838 18.7083ZM14.903 18.5337L19.1957 16.7178V11.6265L14.903 13.4424V18.5337Z" fill="black"/>
<path fill-rule="evenodd" clip-rule="evenodd" d="M19.8796 11.0142L19.8798 11.0162L19.9994 11.0194L19.8808 14.1513V16.9678C19.8808 17.0546 19.8373 17.1347 19.7658 17.1847L19.7608 17.3179L14.6366 19.4837H14.6403L19.7608 17.3179C19.9067 17.2565 20 17.1192 20 16.9678V11.0384C20 11.0317 19.9997 11.0252 19.9994 11.0194V11.0131C19.9994 11.0038 19.9984 10.9961 19.9975 10.9907L19.997 10.9886C19.996 10.9802 19.9945 10.9729 19.9938 10.9694L19.9935 10.968L19.9932 10.966L19.9918 10.9599L19.9915 10.9587L19.9911 10.957C19.9892 10.9486 19.9867 10.9377 19.9828 10.9258L19.9806 10.9194L19.9788 10.9143L19.9778 10.912C19.9764 10.908 19.9741 10.9017 19.9709 10.8949C19.9691 10.8903 19.9667 10.8849 19.9635 10.8789C19.9615 10.8746 19.9582 10.8679 19.9539 10.8608L19.9523 10.8578L19.9486 10.8513C19.9454 10.846 19.9407 10.8383 19.9361 10.8313C19.9317 10.8242 19.9275 10.8191 19.9255 10.8166C19.921 10.8104 19.9159 10.804 19.9102 10.7977L19.9074 10.7944C19.9026 10.7887 19.8976 10.7833 19.8945 10.7801L19.8878 10.7733L19.8826 10.7681C19.8751 10.761 19.8661 10.753 19.8576 10.7463C19.8535 10.7428 19.8496 10.7399 19.8466 10.7378C19.8431 10.7351 19.84 10.733 19.8378 10.7314L19.8317 10.7272C19.8312 10.7268 19.825 10.7222 19.8164 10.7173C19.8122 10.7146 19.8058 10.7107 19.7981 10.7066L19.7889 10.7016C19.7788 10.6964 19.7691 10.6922 19.7633 10.6897L19.7603 10.6884C19.7581 10.6874 19.7557 10.6863 19.7532 10.6854L14.664 8.53277C14.5602 8.48914 14.4412 8.48904 14.3374 8.53268L9.24793 10.6854C9.24556 10.6863 9.24326 10.6873 9.24105 10.6883L9.23868 10.6893C9.2335 10.6915 9.22865 10.6939 9.22581 10.6952L9.21999 10.6979L9.21122 10.7017L9.2056 10.7053C9.19541 10.7105 9.18659 10.7161 9.18253 10.7187L9.17912 10.7208C9.17756 10.7218 9.17527 10.7232 9.1727 10.7249L9.43142 10.732L14.3856 8.63647C14.4587 8.60575 14.5425 8.60575 14.6155 8.63647L19.708 10.7905C19.708 10.7905 19.7089 10.791 19.7091 10.791L19.7131 10.7926C19.7193 10.7953 19.7256 10.798 19.7318 10.8012L19.7375 10.8045C19.7431 10.8072 19.7482 10.8104 19.7533 10.8136C19.7556 10.8147 19.7578 10.8163 19.7601 10.8179C19.7615 10.8189 19.7628 10.8199 19.7643 10.8208C19.7676 10.8231 19.7711 10.8255 19.7743 10.8282C19.776 10.8293 19.7777 10.8303 19.7794 10.832C19.7856 10.8368 19.7918 10.8422 19.7975 10.8476L19.7992 10.8492C19.8009 10.851 19.8025 10.8527 19.8041 10.8543C19.8075 10.8578 19.8109 10.8612 19.8139 10.8648C19.8151 10.8665 19.8168 10.8686 19.8185 10.8702C19.8224 10.8745 19.8258 10.8789 19.8292 10.8837C19.8305 10.8853 19.8317 10.8866 19.8328 10.8881C19.8331 10.8886 19.8335 10.8891 19.8337 10.8896C19.8377 10.8955 19.8416 10.902 19.8456 10.9084L19.849 10.915C19.8519 10.9193 19.8541 10.9241 19.8564 10.929C19.8581 10.9317 19.8592 10.9344 19.8604 10.9376C19.8626 10.9419 19.8643 10.9468 19.866 10.9516C19.8667 10.9529 19.8671 10.9543 19.8676 10.9557C19.8678 10.9564 19.8681 10.9571 19.8683 10.9578C19.8685 10.9582 19.8687 10.9587 19.8689 10.9592C19.8711 10.9662 19.8728 10.9732 19.8745 10.9807L19.8762 10.9883L19.8767 10.9907C19.8777 10.9957 19.8786 11.0004 19.8791 11.0055L19.8793 11.0067C19.8798 11.0089 19.8802 11.0108 19.8802 11.0131L19.8796 11.0142ZM9.00329 10.9914L9.11924 14.1002V16.9678C9.11924 17.0547 9.16279 17.1348 9.23429 17.1848L9.23926 17.3179C9.09332 17.2565 9 17.1192 9 16.9678V11.0384C9 11.0265 9.00087 11.0141 9.0014 11.0066L9.00329 10.9914ZM9.15933 10.7343C9.15768 10.7354 9.15618 10.7364 9.15487 10.7373L9.14568 10.7441C9.13625 10.7515 9.12709 10.7594 9.11875 10.7674L9.11705 10.769C9.11002 10.7757 9.103 10.783 9.0964 10.7906C9.09301 10.7942 9.09012 10.7977 9.08776 10.8007C9.08466 10.8043 9.08217 10.8075 9.08045 10.8097L9.07038 10.8229C9.0612 10.8349 9.05393 10.847 9.04827 10.8578L9.04487 10.8642L9.04262 10.8688L9.04119 10.8715C9.04004 10.8737 9.03747 10.8786 9.0352 10.8834L9.03363 10.8869C9.03315 10.8879 9.03178 10.8907 9.03044 10.8938L9.15933 10.7343ZM14.5783 19.5C14.5829 19.4993 14.5884 19.4982 14.5943 19.4964C14.6065 19.4936 14.6169 19.4903 14.6238 19.4882L14.5783 19.5Z" fill="black"/>
<path fill-rule="evenodd" clip-rule="evenodd" d="M9.6862 16.7915V11.4519L14.2174 13.3687V18.7083L9.6862 16.7915ZM9.80544 11.6265V16.7178L14.0981 18.5337V13.4424L9.80544 11.6265Z" fill="black"/>
<path d="M19.7125 17.2141L14.615 19.3703L14.6145 19.3704C14.6141 19.3706 14.6133 19.3708 14.6133 19.3708L14.6131 19.3709C14.6058 19.3735 14.5985 19.3762 14.5906 19.3789L14.5861 19.3805C14.578 19.3831 14.5695 19.3856 14.5609 19.3873L14.5595 19.3875C14.5595 19.3881 14.5589 19.3881 14.5583 19.3881C14.5396 19.3918 14.5198 19.394 14.5 19.394C14.4802 19.394 14.4604 19.3918 14.4417 19.3881C14.4417 19.3878 14.4414 19.3876 14.4414 19.3876L14.4411 19.3875L14.4405 19.3875C14.4316 19.3854 14.4223 19.3832 14.4139 19.3805L14.4094 19.3789C14.4014 19.3767 14.3941 19.374 14.3867 19.3708C14.3862 19.3708 14.3856 19.3703 14.385 19.3703L9.28746 17.2141C9.2684 17.2061 9.25062 17.1963 9.23429 17.1848L9.23926 17.3179L14.3413 19.4882L14.3942 19.5H14.5783L14.6238 19.4882L14.6366 19.4837L19.7608 17.3179L19.7658 17.1847C19.7495 17.1962 19.7316 17.2061 19.7125 17.2141Z" fill="black"/>
<path d="M9.11924 11.0384C9.11924 11.0303 9.11981 11.0222 9.12037 11.0142C9.12066 11.0128 9.1208 11.0116 9.12094 11.0104C9.12108 11.0092 9.12122 11.008 9.12151 11.0066C9.122 11.0015 9.12291 10.9967 9.12388 10.9917L9.12434 10.9894L9.12604 10.9818L9.12684 10.9785C9.12828 10.9725 9.12979 10.9662 9.1317 10.9603C9.13234 10.959 9.13281 10.9576 9.13329 10.9562C9.13366 10.955 9.13404 10.9539 9.13453 10.9527C9.13623 10.9479 9.13793 10.943 9.1402 10.9382L9.14416 10.9295C9.1453 10.9271 9.14657 10.9247 9.14784 10.9222C9.14912 10.9198 9.15039 10.9174 9.15153 10.915L9.15492 10.9085C9.15832 10.902 9.16229 10.8956 9.16682 10.8896L9.17135 10.8837C9.17235 10.8824 9.17336 10.8811 9.17438 10.8798C9.17627 10.8773 9.17821 10.8747 9.18029 10.8723C9.18088 10.8716 9.18149 10.8709 9.18211 10.8702C9.18324 10.8686 9.18494 10.8665 9.18664 10.8648C9.19117 10.8595 9.19627 10.8541 9.20137 10.8492L9.20307 10.8476C9.20873 10.8422 9.21496 10.8368 9.22119 10.832C9.22204 10.8314 9.22289 10.8307 9.22374 10.8301C9.22459 10.8294 9.22544 10.8287 9.22629 10.8282C9.22884 10.8266 9.23125 10.8248 9.23365 10.8231C9.23606 10.8213 9.23847 10.8196 9.24102 10.8179C9.24215 10.8171 9.24328 10.8165 9.24441 10.8158C9.24555 10.8151 9.24668 10.8144 9.24781 10.8136C9.25291 10.8104 9.25801 10.8072 9.26367 10.8045L9.26934 10.8012C9.27245 10.7999 9.27557 10.7984 9.27868 10.7969C9.2818 10.7954 9.28491 10.794 9.28803 10.7926L9.29199 10.791C9.29199 10.791 9.29284 10.7905 9.29312 10.7905L9.43142 10.732L9.1727 10.7249L9.15933 10.7343L9.03044 10.8938L9.02061 10.915L9.01449 10.9382L9.01013 10.9603L9.00329 10.9914L9.11924 14.1002V11.0384Z" fill="black"/>
<path d="M14.5006 12.7744L10.3938 11.0373L11.014 10.775L10.7381 10.7675L10.1002 11.0373L14.5006 12.8986L18.9009 11.0373L14.5006 9.17605L10.7381 10.7675L11.014 10.775L14.5006 9.30023L18.6073 11.0373L14.5006 12.7744Z" fill="black"/>
<path fill-rule="evenodd" clip-rule="evenodd" d="M14.615 19.3703L19.7125 17.2141C19.7316 17.2061 19.7495 17.1962 19.7658 17.1847L19.8808 14.1513V11.0384C19.8808 11.031 19.8803 11.0236 19.8798 11.0162L19.8796 11.0142L19.8802 11.0131C19.8802 11.0108 19.8798 11.0089 19.8793 11.0067L19.8791 11.0055C19.8786 11.0004 19.8777 10.9957 19.8767 10.9907L19.8762 10.9883L19.8745 10.9807C19.8728 10.9732 19.8711 10.9662 19.8689 10.9592C19.8687 10.9587 19.8685 10.9582 19.8683 10.9578C19.8681 10.9571 19.8678 10.9564 19.8676 10.9557C19.8671 10.9543 19.8667 10.9529 19.866 10.9516C19.8643 10.9468 19.8626 10.9419 19.8604 10.9376C19.8592 10.9344 19.8581 10.9317 19.8564 10.929C19.8541 10.9241 19.8519 10.9193 19.849 10.915L19.8456 10.9084C19.8416 10.902 19.8377 10.8955 19.8337 10.8896C19.8335 10.8891 19.8331 10.8886 19.8328 10.8881C19.8317 10.8866 19.8305 10.8853 19.8292 10.8837C19.8258 10.8789 19.8224 10.8745 19.8185 10.8702C19.8168 10.8686 19.8151 10.8665 19.8139 10.8648C19.8109 10.8612 19.8075 10.8578 19.8041 10.8543C19.8025 10.8527 19.8009 10.851 19.7992 10.8492L19.7975 10.8476C19.7918 10.8422 19.7856 10.8368 19.7794 10.832C19.7777 10.8303 19.776 10.8293 19.7743 10.8282C19.7711 10.8255 19.7676 10.8231 19.7643 10.8208C19.7628 10.8199 19.7615 10.8189 19.7601 10.8179C19.7578 10.8163 19.7556 10.8147 19.7533 10.8136C19.7482 10.8104 19.7431 10.8072 19.7375 10.8045L19.7318 10.8012C19.7256 10.798 19.7193 10.7953 19.7131 10.7926L19.7091 10.791C19.7089 10.791 19.708 10.7905 19.708 10.7905L14.6155 8.63647C14.5425 8.60575 14.4587 8.60575 14.3856 8.63647L9.43142 10.732L9.29312 10.7905C9.29284 10.7905 9.29199 10.791 9.29199 10.791L9.28803 10.7926C9.28491 10.794 9.2818 10.7954 9.27868 10.7969C9.27557 10.7984 9.27245 10.7999 9.26934 10.8012L9.26367 10.8045C9.25801 10.8072 9.25291 10.8104 9.24781 10.8136C9.24668 10.8144 9.24555 10.8151 9.24441 10.8158C9.24328 10.8165 9.24215 10.8171 9.24102 10.8179C9.23847 10.8196 9.23606 10.8213 9.23365 10.8231C9.23125 10.8248 9.22884 10.8266 9.22629 10.8282C9.22544 10.8287 9.22459 10.8294 9.22374 10.8301C9.22289 10.8307 9.22204 10.8314 9.22119 10.832C9.21496 10.8368 9.20873 10.8422 9.20307 10.8476L9.20137 10.8492C9.19627 10.8541 9.19117 10.8595 9.18664 10.8648C9.18494 10.8665 9.18324 10.8686 9.18211 10.8702C9.18149 10.8709 9.18088 10.8716 9.18029 10.8723C9.17821 10.8747 9.17627 10.8773 9.17438 10.8798C9.17336 10.8811 9.17235 10.8824 9.17135 10.8837L9.16682 10.8896C9.16229 10.8956 9.15832 10.902 9.15492 10.9085L9.15153 10.915C9.15039 10.9174 9.14912 10.9198 9.14784 10.9222C9.14657 10.9247 9.1453 10.9271 9.14416 10.9295L9.1402 10.9382C9.13793 10.943 9.13623 10.9479 9.13453 10.9527C9.13404 10.9539 9.13366 10.955 9.13329 10.9562C9.13281 10.9576 9.13234 10.959 9.1317 10.9603C9.12979 10.9662 9.12828 10.9725 9.12684 10.9785L9.12604 10.9818L9.12434 10.9894L9.12388 10.9917C9.12291 10.9967 9.122 11.0015 9.12151 11.0066C9.12122 11.008 9.12108 11.0092 9.12094 11.0104C9.1208 11.0116 9.12066 11.0128 9.12037 11.0142C9.11981 11.0222 9.11924 11.0303 9.11924 11.0384V14.1002L9.23429 17.1848C9.25062 17.1963 9.2684 17.2061 9.28746 17.2141L14.385 19.3703C14.3856 19.3703 14.3862 19.3708 14.3867 19.3708C14.3941 19.374 14.4014 19.3767 14.4094 19.3789L14.4139 19.3805C14.4223 19.3832 14.4316 19.3854 14.4405 19.3875L14.4411 19.3875L14.4414 19.3876C14.4414 19.3876 14.4417 19.3878 14.4417 19.3881C14.4604 19.3918 14.4802 19.394 14.5 19.394C14.5198 19.394 14.5396 19.3918 14.5583 19.3881C14.5589 19.3881 14.5595 19.3881 14.5595 19.3875L14.5609 19.3873C14.5695 19.3856 14.578 19.3831 14.5861 19.3805L14.5906 19.3789C14.5985 19.3762 14.6058 19.3735 14.6131 19.3709L14.6133 19.3708C14.6133 19.3708 14.6141 19.3706 14.6145 19.3704L14.615 19.3703ZM14.5006 12.8986L10.1002 11.0373L10.7381 10.7675L14.5006 9.17605L18.9009 11.0373L14.5006 12.8986ZM9.6862 11.4519V16.7915L14.2174 18.7083V13.3687L9.6862 11.4519ZM14.7838 13.3687V18.7083L19.3149 16.7915V11.4519L14.7838 13.3687Z" fill="black"/>
<path d="M9.11924 16.9678C9.11924 17.0547 9.16279 17.1348 9.23429 17.1848L9.11924 14.1002V16.9678Z" fill="black"/>
<path d="M19.8808 16.9678V14.1513L19.7658 17.1847C19.8373 17.1347 19.8808 17.0546 19.8808 16.9678Z" fill="black"/>
</svg>
