<svg width="1440" height="328" viewBox="0 0 1440 328" fill="none" xmlns="http://www.w3.org/2000/svg">
<path fill-rule="evenodd" clip-rule="evenodd" d="M0 240.379L60 218.473C120 196.568 240 152.757 360 160.059C480 167.361 600 225.775 720 196.568C840 167.361 960 50.5323 1080 14.0234C1131.04 -1.50474 1182.08 -2.50301 1228.5 3.16324C1291.22 10.8192 1345.52 30.642 1380 43.2305L1440 65.1358V328H1380C1320 328 1200 328 1080 328C960 328 840 328 720 328C600 328 480 328 360 328C240 328 120 328 60 328H0V240.379Z" fill="#F4EEC7"/>
<path d="M1440 65.0037L1380.14 43.0874C1345.74 30.4926 1291.58 10.6598 1229 3C1229 3 1311.83 81.9357 1352.21 142.407C1394 205 1440 328 1440 328V65.0037Z" fill="#E7DEA3"/>
</svg>
