<svg width="1440" height="43" viewBox="0 0 1440 43" fill="none" xmlns="http://www.w3.org/2000/svg">
<path d="M52.9303 43L0 0H110.313L52.9303 43Z" fill="#F4EEC7"/>
<path d="M163.738 43L110.807 0H221.12L163.738 43Z" fill="#F4EEC7"/>
<path d="M274.545 43L221.615 0H331.927L274.545 43Z" fill="#F4EEC7"/>
<path d="M385.352 43L332.422 0H442.734L385.352 43Z" fill="#F4EEC7"/>
<path d="M496.159 43L443.229 0H553.542L496.159 43Z" fill="#F4EEC7"/>
<path d="M606.967 43L554.036 0H664.349L606.967 43Z" fill="#F4EEC7"/>
<path d="M717.774 43L664.844 0H775.156L717.774 43Z" fill="#F4EEC7"/>
<path d="M828.581 43L775.651 0H885.964L828.581 43Z" fill="#F4EEC7"/>
<path d="M939.389 43L886.458 0H996.771L939.389 43Z" fill="#F4EEC7"/>
<path d="M1050.2 43L997.266 0H1107.58L1050.2 43Z" fill="#F4EEC7"/>
<path d="M1161 43L1108.07 0H1218.39L1161 43Z" fill="#F4EEC7"/>
<path d="M1271.81 43L1218.88 0H1329.19L1271.81 43Z" fill="#F4EEC7"/>
<path d="M1382.62 43L1329.69 0H1440L1382.62 43Z" fill="#F4EEC7"/>
</svg>
