<svg width="330" height="241" viewBox="0 0 330 241" fill="none" xmlns="http://www.w3.org/2000/svg">
<path d="M230 50C230 22.3858 252.386 0 280 0C307.614 0 330 22.3858 330 50C330 77.6142 307.614 100 280 100C252.386 100 230 77.6142 230 50Z" fill="#F4EEC7"/>
<g clip-path="url(#clip0)">
<path d="M303.005 12.3594H295.816V23.8609H303.005V12.3594Z" fill="#5B5D6E"/>
<path d="M315.944 26.7383L280 10.9229L244.056 26.7383V88.5622H315.944V26.7383Z" fill="#FFD782"/>
<path d="M315.944 29.614H313.069V88.5624H315.944V29.614Z" fill="#E4EAF6"/>
<path d="M246.931 29.614H244.056V88.5624H246.931V29.614Z" fill="#E4EAF6"/>
<path d="M315.943 82.811H244.056V87.1243H315.943V82.811Z" fill="#C7CFE2"/>
<path d="M287.191 59.8062H272.812V88.5608H287.191V59.8062Z" fill="#E4EAF6"/>
<path d="M287.189 90.0001H272.811C272.017 90.0001 271.373 89.3563 271.373 88.5623V59.807C271.373 59.0129 272.017 58.3691 272.811 58.3691H287.189C287.983 58.3691 288.627 59.0129 288.627 59.807V88.5623C288.627 89.3563 287.983 90.0001 287.189 90.0001ZM274.249 87.1245H285.751V61.2448H274.249V87.1245Z" fill="white"/>
<path d="M265.622 59.8062H252.683V77.0593H265.622V59.8062Z" fill="#B4E1FA"/>
<path d="M252.682 77.06H262.387L252.682 59.8069V77.06Z" fill="#A0D2F0"/>
<path d="M265.622 67.475L261.309 59.8069H256.996L265.622 75.143V67.475Z" fill="#DAF0FD"/>
<path d="M265.622 59.8062H252.683V64.1194H265.622V59.8062Z" fill="#A0D2F0"/>
<path d="M263.735 64.1202L261.309 59.8069H256.996L259.422 64.1202H263.735Z" fill="#B4E1FA"/>
<path d="M265.622 58.3691H252.682C251.888 58.3691 251.245 59.0129 251.245 59.807V77.0601C251.245 77.8541 251.888 78.4979 252.682 78.4979H265.622C266.416 78.4979 267.06 77.8541 267.06 77.0601V59.807C267.06 59.0129 266.417 58.3691 265.622 58.3691ZM264.184 61.2448V66.9959H254.12V61.2448H264.184ZM254.12 75.6224V69.8713H264.184V75.6224H254.12Z" fill="white"/>
<path d="M265.622 33.9265H252.683V51.1796H265.622V33.9265Z" fill="#B4E1FA"/>
<path d="M252.682 51.1803H262.387L252.682 33.927V51.1803Z" fill="#A0D2F0"/>
<path d="M265.622 41.5951L261.309 33.927H256.996L265.622 49.2631V41.5951Z" fill="#DAF0FD"/>
<path d="M265.622 33.9265H252.683V38.2398H265.622V33.9265Z" fill="#A0D2F0"/>
<path d="M263.735 38.2403L261.309 33.927H256.996L259.422 38.2403H263.735Z" fill="#B4E1FA"/>
<path d="M265.622 32.4893H252.682C251.888 32.4893 251.245 33.133 251.245 33.9271V51.1802C251.245 51.9743 251.888 52.618 252.682 52.618H265.622C266.416 52.618 267.06 51.9743 267.06 51.1802V33.9271C267.06 33.133 266.417 32.4893 265.622 32.4893ZM264.184 35.3647V41.1158H254.12V35.3647H264.184ZM254.12 49.7424V43.9913H264.184V49.7424H254.12Z" fill="white"/>
<path d="M307.317 33.9265H294.378V51.1796H307.317V33.9265Z" fill="#B4E1FA"/>
<path d="M294.378 51.1803H304.083L294.378 33.927V51.1803Z" fill="#A0D2F0"/>
<path d="M307.317 41.5951L303.004 33.927H298.691L307.317 49.2631V41.5951Z" fill="#DAF0FD"/>
<path d="M307.317 33.9265H294.378V38.2398H307.317V33.9265Z" fill="#A0D2F0"/>
<path d="M305.43 38.2403L303.004 33.927H298.691L301.117 38.2403H305.43Z" fill="#B4E1FA"/>
<path d="M307.317 32.4893H294.378C293.584 32.4893 292.94 33.133 292.94 33.9271V51.1802C292.94 51.9743 293.584 52.618 294.378 52.618H307.317C308.112 52.618 308.755 51.9743 308.755 51.1802V33.9271C308.755 33.133 308.112 32.4893 307.317 32.4893ZM305.88 35.3647V41.1158H295.815V35.3647H305.88ZM295.815 49.7424V43.9913H305.88V49.7424H295.815Z" fill="white"/>
<path d="M287.191 33.9265H272.812V51.1796H287.191V33.9265Z" fill="#B4E1FA"/>
<path d="M272.811 51.1803H282.516L272.811 33.927V51.1803Z" fill="#A0D2F0"/>
<path d="M285.751 41.5951L281.438 33.927H277.124L285.751 49.2631V41.5951Z" fill="#DAF0FD"/>
<path d="M287.191 33.9265H272.812V38.2398H287.191V33.9265Z" fill="#A0D2F0"/>
<path d="M283.864 38.2403L281.438 33.927H277.124L279.551 38.2403H283.864Z" fill="#B4E1FA"/>
<path d="M287.189 32.4893H272.811C272.017 32.4893 271.373 33.133 271.373 33.9271V51.1802C271.373 51.9743 272.017 52.618 272.811 52.618H287.189C287.983 52.618 288.627 51.9743 288.627 51.1802V33.9271C288.627 33.133 287.983 32.4893 287.189 32.4893ZM285.751 49.7424H274.249V43.9913H285.751V49.7424ZM285.751 41.1158H274.249V35.3647H285.751V41.1158Z" fill="white"/>
<path d="M307.317 59.8062H294.378V77.0593H307.317V59.8062Z" fill="#B4E1FA"/>
<path d="M294.378 77.06H304.083L294.378 59.8069V77.06Z" fill="#A0D2F0"/>
<path d="M307.317 67.475L303.004 59.8069H298.691L307.317 75.143V67.475Z" fill="#DAF0FD"/>
<path d="M307.317 59.8062H294.378V64.1194H307.317V59.8062Z" fill="#A0D2F0"/>
<path d="M305.43 64.1202L303.004 59.8069H298.691L301.117 64.1202H305.43Z" fill="#B4E1FA"/>
<path d="M307.317 58.3691H294.378C293.584 58.3691 292.94 59.0129 292.94 59.807V77.0601C292.94 77.8541 293.584 78.4979 294.378 78.4979H307.317C308.112 78.4979 308.755 77.8541 308.755 77.0601V59.807C308.755 59.0129 308.112 58.3691 307.317 58.3691ZM305.88 61.2448V66.9959H295.815V61.2448H305.88ZM295.815 75.6224V69.8713H305.88V75.6224H295.815Z" fill="white"/>
<path d="M244.056 27.1752V31.3177L280 16.6739L315.944 31.3177V27.1752L280 12.5311L244.056 27.1752Z" fill="#C7CFE2"/>
<path d="M278.373 10.3188L242.344 24.9969C241.64 25.2836 241.18 25.968 241.18 26.7278V27.4753C241.18 28.4966 242.215 29.192 243.16 28.8069L280 13.7981L316.84 28.8067C317.785 29.192 318.82 28.4964 318.82 27.4752V26.7277C318.82 25.9678 318.36 25.2834 317.656 24.9967L281.627 10.3188C280.584 9.89375 279.416 9.89375 278.373 10.3188Z" fill="#707487"/>
<path d="M318.101 90.0001H241.899C241.502 90.0001 241.18 89.6783 241.18 89.2812V87.8434C241.18 87.4464 241.502 87.1245 241.899 87.1245H318.101C318.498 87.1245 318.82 87.4464 318.82 87.8434V89.2812C318.82 89.6783 318.498 90.0001 318.101 90.0001Z" fill="#8F96AC"/>
<path d="M303.723 13.7982H295.097C294.7 13.7982 294.378 13.4764 294.378 13.0793V11.6415C294.378 11.2445 294.7 10.9226 295.097 10.9226H303.723C304.12 10.9226 304.442 11.2445 304.442 11.6415V13.0793C304.442 13.4764 304.12 13.7982 303.723 13.7982Z" fill="#6F7589"/>
</g>
<path d="M114.554 192.443C106.516 166.025 121.416 138.092 147.835 130.054C174.253 122.016 202.186 136.916 210.224 163.335C218.262 189.753 203.362 217.686 176.943 225.724C150.525 233.762 122.592 218.862 114.554 192.443Z" fill="#F5F5F5"/>
<g clip-path="url(#clip1)">
<path d="M199.782 206.995C201.795 206.382 202.93 204.254 202.318 202.241C201.705 200.229 199.577 199.093 197.564 199.706C195.552 200.318 194.416 202.446 195.029 204.459C195.641 206.472 197.769 207.607 199.782 206.995Z" fill="#5D5360"/>
<path d="M194.871 195.216L197.459 203.72C197.663 204.391 198.372 204.77 199.043 204.566C199.715 204.361 200.093 203.652 199.889 202.981L197.301 194.477L194.871 195.216Z" fill="#AEA8AF"/>
<path d="M158.477 219.563C160.49 218.95 161.625 216.822 161.013 214.809C160.4 212.796 158.272 211.661 156.259 212.273C154.246 212.886 153.111 215.014 153.723 217.027C154.336 219.04 156.464 220.175 158.477 219.563Z" fill="#5D5360"/>
<path d="M153.566 207.784L156.154 216.288C156.358 216.959 157.067 217.337 157.738 217.133C158.41 216.929 158.788 216.22 158.583 215.549L155.996 207.045L153.566 207.784Z" fill="#AEA8AF"/>
<path d="M199.361 192.523L151.996 206.935C151.582 207.061 151.154 206.975 150.82 206.699C150.486 206.424 150.319 206.02 150.364 205.589L151.774 191.976C150.927 191.936 150.08 191.915 149.232 191.855L147.838 205.328C147.706 206.6 148.217 207.846 149.205 208.66C150.192 209.473 151.512 209.737 152.735 209.364L200.101 194.953C200.772 194.749 201.15 194.039 200.946 193.369C200.742 192.698 200.033 192.319 199.361 192.523Z" fill="#C0BCC1"/>
<path d="M194.672 155.457L194.021 153.001L184.97 155.399L183.314 147.82L180.832 148.363L182.511 156.05L172.818 158.618L170.594 150.541L168.144 151.215L170.362 159.269L160.376 161.914L156.972 152.785L154.592 153.673L157.909 162.568L147.318 165.373L142.368 155.856L140.114 157.028L144.801 166.04L133.835 168.945L134.486 171.4L146.002 168.35L150.93 177.825L141.393 180.96L142.187 183.372L152.117 180.108L157.299 190.073L159.553 188.901L154.562 179.304L163.103 176.497L166.691 186.119L169.071 185.232L165.518 175.703L174.11 172.879L176.587 181.871L179.036 181.197L176.527 172.084L185.379 169.175L187.233 177.665L189.715 177.123L187.805 168.378L196.231 165.608L195.438 163.196L187.26 165.884L185.513 157.883L194.672 155.457ZM153.375 177.022L148.519 167.683L158.801 164.959L162.215 174.116L153.375 177.022ZM164.63 173.322L161.268 164.306L171.036 161.718L173.435 170.428L164.63 173.322ZM184.834 166.681L175.851 169.634L173.493 161.067L183.054 158.534L184.834 166.681Z" fill="#C0BCC1"/>
<path d="M152.932 193.081C150.261 193.894 147.389 192.884 145.817 190.527L125.247 159.787C125.012 159.436 124.968 158.991 125.128 158.599C125.288 158.208 125.639 157.923 126.046 157.837L192.718 144.112C193.055 144.042 193.408 144.113 193.692 144.308C193.977 144.503 194.169 144.806 194.226 145.146L198.571 171.134C198.967 173.501 197.629 175.846 195.391 176.71L153.384 192.925C153.234 192.983 153.083 193.035 152.932 193.081ZM128.409 159.944L147.928 189.116C148.926 190.612 150.819 191.204 152.468 190.556L194.476 174.34C195.595 173.908 196.264 172.736 196.067 171.551L191.939 146.865L128.409 159.944Z" fill="#C9C6CA"/>
<path d="M123.536 161.06L114.821 156.411C113.584 155.751 113.115 154.212 113.776 152.975C114.436 151.737 115.974 151.269 117.212 151.929L125.927 156.578C127.164 157.238 127.632 158.776 126.972 160.014C126.312 161.252 124.773 161.72 123.536 161.06Z" fill="#E6646E"/>
<path d="M117.212 151.929C117.131 151.886 117.046 151.86 116.963 151.827C116.912 151.901 116.856 151.97 116.813 152.05C116.153 153.288 116.621 154.826 117.858 155.487L126.573 160.135C126.654 160.179 126.739 160.204 126.822 160.238C126.873 160.163 126.929 160.095 126.972 160.014C127.632 158.777 127.164 157.238 125.927 156.578L117.212 151.929Z" fill="#FF8087"/>
<rect x="158.585" y="148.5" width="44.1437" height="7" rx="3.5" transform="rotate(45 158.585 148.5)" fill="#EB5757"/>
<rect x="154" y="179.214" width="44.1437" height="7" rx="3.5" transform="rotate(-45 154 179.214)" fill="#EB5757"/>
</g>
<path d="M98 48V55H200.5V62L216 51L200.5 41V48H98Z" fill="#F4EEC7"/>
<path d="M0 50C0 22.3858 22.3858 0 50 0C77.6142 0 100 22.3858 100 50C100 77.6142 77.6142 100 50 100C22.3858 100 0 77.6142 0 50Z" fill="#F4EEC7"/>
<g clip-path="url(#clip2)">
<path d="M77.989 32.591H72.8932V27.1358C72.8932 26.5339 73.3812 26.0459 73.983 26.0459H76.8992C77.501 26.0459 77.989 26.5339 77.989 27.1358V32.591Z" fill="#80D261"/>
<path d="M50.1379 25.6496L53.2161 20.8811C53.486 20.463 53.292 19.9026 52.8214 19.741L51.5025 19.2877C51.3305 19.2286 51.1853 19.1104 51.0926 18.9539L50.2152 17.4749C50.0151 17.1376 49.5927 17.0058 49.2363 17.1696L47.1081 18.147C46.9051 18.2402 46.6715 18.2402 46.4684 18.147L44.3402 17.1696C43.9839 17.0058 43.5614 17.1376 43.3613 17.4749L42.4839 18.9539C42.3912 19.1102 42.2458 19.2285 42.074 19.2877L40.7551 19.741C40.2846 19.9028 40.0905 20.4632 40.3604 20.8811L43.4386 25.6496L44.6835 29.2075H47.8651L50.1379 25.6496Z" fill="#80D261"/>
<path d="M46.809 25.6495L43.7308 20.8809C43.4609 20.4627 43.6549 19.9025 44.1255 19.7407L45.4444 19.2874C45.6164 19.2283 45.7616 19.1099 45.8543 18.9536L46.362 18.0977L44.3402 17.1691C43.9839 17.0056 43.5614 17.1372 43.3613 17.4745L42.4839 18.9535C42.3912 19.1098 42.2458 19.228 42.074 19.2872L40.7551 19.7405C40.2846 19.9023 40.0905 20.4627 40.3604 20.8807L43.4386 25.6494L44.6835 29.2072H47.8651L47.9869 29.0164L46.809 25.6495Z" fill="#68CA44"/>
<path d="M81.9868 45.6752V37.3188C81.9965 37.0828 81.9868 33.5542 81.9868 33.5542H67.6319V51.2501H81.9912L81.9868 45.6752Z" fill="#BD80E1"/>
<path d="M75.3373 41.6695C75.3373 38.6733 74.438 35.8834 72.8963 33.5542H67.6317V51.2501H71.7906C74.0003 48.6713 75.3373 45.3238 75.3373 41.6695Z" fill="#AF66DA"/>
<path d="M84.5749 34.0362V36.6205C84.5749 37.0061 84.2619 37.319 83.8764 37.319H68.8917H66.3074V34.2605V34.0362C66.3074 32.1698 67.8222 30.655 69.6886 30.655H81.1937C83.0601 30.655 84.5749 32.1698 84.5749 34.0362V34.0362Z" fill="#80D261"/>
<path d="M54.4185 31.5133V31.5246C54.4185 32.6554 54.3249 33.783 54.141 34.8945L50.0001 53.22H41.7584L39.4887 35.1848C39.2709 33.9717 39.1564 32.7393 39.158 31.5036C39.1596 28.2676 41.7842 25.6478 45.0202 25.6494L48.5659 25.6526C51.8003 25.6543 54.4217 28.2789 54.4185 31.5133V31.5133Z" fill="#FEA95C"/>
<path d="M44.7907 35.5814C44.5729 34.3683 44.4584 33.1359 44.46 31.9002C44.4616 28.6642 47.0862 26.0444 50.3222 26.046L50.6732 26.0463C50.0192 25.7934 49.3091 25.6532 48.566 25.6529L45.0202 25.6497C41.7842 25.648 39.1596 28.2678 39.158 31.5038C39.1564 32.7395 39.2709 33.972 39.4887 35.1851L41.7584 53.2202H47.0105L44.7907 35.5814Z" fill="#FE9738"/>
<path d="M70.3824 30.655H69.6886C67.8222 30.655 66.3074 32.1698 66.3074 34.0362V34.2605V37.319H68.8917H74.682C73.8769 34.7176 72.3694 32.4226 70.3824 30.655Z" fill="#68CA44"/>
<path d="M60.5948 51.5728C66.0642 51.5728 70.498 47.139 70.498 41.6696C70.498 36.2002 66.0642 31.7664 60.5948 31.7664C55.1254 31.7664 50.6916 36.2002 50.6916 41.6696C50.6916 47.139 55.1254 51.5728 60.5948 51.5728Z" fill="#FE9738"/>
<path d="M55.5892 42.9096C55.5892 37.4721 59.9718 33.0603 65.3972 33.0088C63.9745 32.2182 62.3377 31.7664 60.5948 31.7664C55.1254 31.7664 50.6916 36.2001 50.6916 41.6696C50.6916 47.139 55.1254 51.5728 60.5948 51.5728C60.6267 51.5728 60.6582 51.5707 60.69 51.5704C57.6484 49.8803 55.5892 46.636 55.5892 42.9096Z" fill="#FE860A"/>
<path d="M90 72.9313V80.5228C90 81.8359 88.9353 82.9006 87.6222 82.9006H12.3778C11.0647 82.9006 10 81.8359 10 80.5228V72.9313C10 71.6182 11.0647 70.5535 12.3778 70.5535H87.6222C88.9353 70.5535 90 71.6182 90 72.9313Z" fill="#FBC56D"/>
<path d="M30.2218 78.634C25.7592 78.634 22.1413 75.0163 22.1413 70.5535H12.3778C11.0645 70.5535 10 71.618 10 72.9313V80.5228C10 81.8361 11.0645 82.9006 12.3778 82.9006H87.6222C88.9355 82.9006 90 81.8361 90 80.5228V78.634H30.2218Z" fill="#E9B665"/>
<path d="M90 60.5842V68.1774C90 69.4905 88.9353 70.5536 87.6222 70.5536H12.3778C11.0647 70.5536 10 69.4905 10 68.1774V60.5842C10 59.2711 11.0647 58.208 12.3778 58.208H87.6222C88.9353 58.208 90 59.2711 90 60.5842Z" fill="#FCCD7F"/>
<path d="M31.2008 66.4776C26.6336 66.4776 22.9313 62.7752 22.9313 58.208H12.3778C11.0645 58.208 10 59.2725 10 60.5858V68.1774C10 69.4897 11.0639 70.5536 12.3762 70.5536H87.6222C88.9355 70.5536 90 69.489 90 68.1757V66.4776H31.2008Z" fill="#FBC56D"/>
<path d="M28.9666 33.7643C28.2983 33.7643 27.7567 33.2228 27.7567 32.5544V28.3676C27.7567 25.8779 28.7262 23.5375 30.4865 21.7771L30.9103 21.3533C31.3829 20.8809 32.1489 20.8809 32.6214 21.3533C33.0939 21.8259 33.0939 22.5919 32.6214 23.0644L32.1976 23.4881C30.8942 24.7914 30.1765 26.5243 30.1765 28.3676V32.5544C30.1765 33.2228 29.6349 33.7643 28.9666 33.7643V33.7643Z" fill="#80D261"/>
<path d="M42.8424 42.8943C42.8424 43.8573 42.7101 44.7897 42.4682 45.6754L37.0157 54.4768H19.9532L15.5219 45.6754C15.2799 44.7897 15.1492 43.8573 15.1492 42.8943C15.1492 37.0691 19.871 32.3474 25.6961 32.3474C26.8495 32.3474 27.9578 32.5345 28.995 32.8765C30.0339 32.5345 31.1421 32.3474 32.2955 32.3474C38.1207 32.3474 42.8424 37.0691 42.8424 42.8943V42.8943Z" fill="#FE646F"/>
<path d="M22.3068 42.8943C22.3068 37.1627 26.8789 32.5028 32.5746 32.3545C32.4815 32.3521 32.3891 32.3474 32.2955 32.3474C31.1421 32.3474 30.0339 32.5345 28.995 32.8765C27.9577 32.5345 26.8495 32.3474 25.6961 32.3474C19.871 32.3474 15.1492 37.0691 15.1492 42.8943C15.1492 43.8573 15.2799 44.7897 15.5219 45.6754L19.9532 54.4768H27.1108L22.6795 45.6754C22.4375 44.7897 22.3068 43.8573 22.3068 42.8943V42.8943Z" fill="#FD4755"/>
<path d="M90 48.0515V55.8302C90 57.1433 88.9353 58.208 87.6222 58.208H12.3778C11.0647 58.208 10 57.1433 10 55.8302V48.0515C10 46.74 11.0647 45.6753 12.3778 45.6753H87.6222C88.9353 45.6753 90 46.74 90 48.0515Z" fill="#FBC56D"/>
<path d="M30.9871 53.8656C26.4636 53.8656 22.7967 50.1988 22.7967 45.6753H12.3778C11.0645 45.6753 10 46.7398 10 48.0531V55.8302C10 57.1434 11.0645 58.208 12.3778 58.208H87.6222C88.9355 58.208 90 57.1434 90 55.8302V53.8656H30.9871Z" fill="#E9B665"/>
<path d="M24.2276 26.9355H28.9666V23.2738C28.9666 21.3576 27.4133 19.8043 25.4972 19.8043H20.7582V23.466C20.7582 25.3822 22.3115 26.9355 24.2276 26.9355Z" fill="#80D261"/>
<path d="M50.3187 31.5141C50.3187 32.1824 50.8603 32.7239 51.5286 32.7239H54.3792C54.4026 32.3248 54.4186 31.9251 54.4186 31.5246V31.5133C54.4191 31.0987 54.3757 30.6944 54.294 30.3042H51.5286C50.8603 30.3042 50.3187 30.8457 50.3187 31.5141V31.5141Z" fill="#FE9738"/>
<path d="M47.4754 37.1219H46.4488C45.7804 37.1219 45.2389 36.5804 45.2389 35.912C45.2389 35.2437 45.7804 34.7021 46.4488 34.7021H47.4754C48.1437 34.7021 48.6853 35.2437 48.6853 35.912C48.6853 36.5804 48.1436 37.1219 47.4754 37.1219Z" fill="#FE9738"/>
<path d="M44.4599 30.4174C44.4599 29.7491 43.9184 29.2075 43.2501 29.2075H39.6267C39.3256 29.9125 39.1583 30.6884 39.158 31.5037C39.158 31.5432 39.1589 31.5827 39.1592 31.6221C39.1926 31.6248 39.2264 31.6273 39.2604 31.6273H43.2501C43.9184 31.6273 44.4599 31.0857 44.4599 30.4174V30.4174Z" fill="#FE860A"/>
<path d="M15.9557 53.8474C17.0084 53.8474 17.8618 52.994 17.8618 51.9413C17.8618 50.8886 17.0084 50.0352 15.9557 50.0352C14.903 50.0352 14.0496 50.8886 14.0496 51.9413C14.0496 52.994 14.903 53.8474 15.9557 53.8474Z" fill="#D8AA5E"/>
<path d="M15.9557 66.2868C17.0084 66.2868 17.8618 65.4334 17.8618 64.3807C17.8618 63.328 17.0084 62.4746 15.9557 62.4746C14.903 62.4746 14.0496 63.328 14.0496 64.3807C14.0496 65.4334 14.903 66.2868 15.9557 66.2868Z" fill="#E9B665"/>
<path d="M15.9557 78.6333C17.0084 78.6333 17.8618 77.7799 17.8618 76.7272C17.8618 75.6744 17.0084 74.821 15.9557 74.821C14.903 74.821 14.0496 75.6744 14.0496 76.7272C14.0496 77.7799 14.903 78.6333 15.9557 78.6333Z" fill="#D8AA5E"/>
<path d="M84.2057 53.8474C85.2584 53.8474 86.1118 52.994 86.1118 51.9413C86.1118 50.8886 85.2584 50.0352 84.2057 50.0352C83.153 50.0352 82.2996 50.8886 82.2996 51.9413C82.2996 52.994 83.153 53.8474 84.2057 53.8474Z" fill="#E9B665"/>
<path d="M84.2057 66.2866C85.2584 66.2866 86.1118 65.4332 86.1118 64.3805C86.1118 63.3278 85.2584 62.4744 84.2057 62.4744C83.153 62.4744 82.2996 63.3278 82.2996 64.3805C82.2996 65.4332 83.153 66.2866 84.2057 66.2866Z" fill="#E9B665"/>
<path d="M84.2057 78.633C85.2584 78.633 86.1118 77.7796 86.1118 76.7269C86.1118 75.6742 85.2584 74.8208 84.2057 74.8208C83.153 74.8208 82.2996 75.6742 82.2996 76.7269C82.2996 77.7796 83.153 78.633 84.2057 78.633Z" fill="#E9B665"/>
</g>
<path d="M214.5 100.5V143.5M158 75V91.25V107.5M121 81V126M184.5 84.25V100.5V116.75" stroke="#F5F5F5" stroke-width="3"/>
<defs>
<clipPath id="clip0">
<rect x="240" y="10" width="80" height="80" fill="white"/>
</clipPath>
<clipPath id="clip1">
<rect x="112.478" y="151.265" width="80" height="80" transform="rotate(-16.923 112.478 151.265)" fill="white"/>
</clipPath>
<clipPath id="clip2">
<rect x="10" y="10" width="80" height="80" fill="white"/>
</clipPath>
</defs>
</svg>
